<?xml version="1.0" encoding="UTF-8"?>
<svg width="92px" height="61px" viewBox="0 0 92 61" version="1.1" xmlns="http://www.w3.org/2000/svg" xmlns:xlink="http://www.w3.org/1999/xlink">
    <!-- Generator: Sketch 51.3 (57544) - http://www.bohemiancoding.com/sketch -->
    <title>vision</title>
    <desc>Created with Sketch.</desc>
    <defs></defs>
    <g id="Page-1" stroke="none" stroke-width="1" fill="none" fill-rule="evenodd">
        <g id="Home" transform="translate(-251.000000, -33.000000)" fill-rule="nonzero">
            <g id="vision" transform="translate(251.000000, 33.000000)">
                <path d="M65.589696,34.3518806 L65.589696,34.4171791 C65.589696,38.7828546 62.3571355,41.9918127 57.0580113,41.9918127 C53.5298891,42.1240966 50.1370135,40.6474833 47.8627512,37.9899435 L51.5029366,34.6503883 C52.8543393,36.401805 54.9560285,37.4358795 57.1907264,37.4488982 C59.1435343,37.4488982 60.5275631,36.3574794 60.5275631,34.6503883 L60.5275631,34.5477763 C60.5275631,32.682103 58.8117465,31.6000125 55.9109737,31.6000125 L53.7306543,31.6000125 L52.9154044,28.381726 L60.4991242,20.9190329 L57.4561566,22.7847062 L49.2846986,22.7847062 L49.2846986,18.428359 L65.2199897,18.428359 L65.2199897,22.2623177 L59.2572901,27.8593375 C62.4614116,28.3910544 65.589696,30.0421753 65.589696,34.389194 L65.589696,34.3518806 Z M50.8014426,7.85931985 C50.7575237,6.8713663 51.1252508,5.90856854 51.8195601,5.19364331 C52.5138694,4.47871808 53.4746121,4.07360039 54.4795466,4.07200307 L56.8968573,4.07200307 L56.2427615,4.37051079 L56.2427615,10.0981278 C56.2382186,10.4579206 56.2699731,10.817269 56.337558,11.1708899 C56.3725565,11.3440538 56.4265923,11.5129577 56.498712,11.6746217 L54.5079856,11.6746217 C53.4972145,11.6677701 52.532424,11.2580752 51.8339424,10.5390984 C51.1354608,9.8201217 50.7629365,8.8532619 50.8014426,7.85931985 Z M54.4795466,12.6634286 L56.6219474,12.6634286 L56.6219474,11.8798458 L56.688305,11.9824578 C56.8424779,12.2054216 57.0555094,12.3828024 57.3044822,12.495518 C57.6030528,12.6235259 57.9269727,12.6840885 58.2524472,12.6727569 L77.0979907,12.6727569 L77.0979907,3.09252459 L76.0647089,3.09252459 L76.0647089,11.6652934 L58.2808861,11.6652934 C58.1162252,11.673519 57.9516168,11.6481101 57.797424,11.5906664 C57.6730129,11.5331207 57.5701889,11.4384656 57.5035549,11.3201438 C57.4225577,11.1692319 57.3711064,11.0046838 57.3518805,10.8350687 C57.3340234,10.5928495 57.3340234,10.3496754 57.3518805,10.1074562 L57.3518805,3.09252459 L54.5079856,3.09252459 C53.2195274,3.07192497 51.9780837,3.56844861 51.0695725,4.46774075 C50.1610612,5.36703288 49.6638037,6.59156706 49.6923235,7.85931985 C49.6694275,9.11081992 50.1586744,10.3188561 51.0500577,11.2118029 C51.941441,12.1047497 53.160146,12.6076612 54.4321484,12.6074584 L54.4795466,12.6634286 Z M84.6817105,2.07573265 L82.4634724,2.07573265 L82.4634724,1.24550803 C82.4423991,0.906600989 82.5543831,0.572671043 82.7763009,0.312671387 C83.0357926,0.0860895034 83.378696,-0.0252627703 83.7242658,0.00483529385 L84.4541989,0.00483529385 L84.4541989,0.676477679 L83.7337455,0.676477679 C83.6191206,0.659154847 83.5023414,0.689573672 83.4114374,0.760432977 C83.3492344,0.847448625 83.3191309,0.952775202 83.3261206,1.0589407 L83.3261206,1.32946333 L84.6817105,1.32946333 L84.6817105,2.07573265 Z M87.2980938,12.7846973 C87.0130178,12.7850429 86.7292079,12.747387 86.4544049,12.6727569 L86.7293148,11.7399203 L87.0137043,11.8052189 L87.2601752,11.8052189 C87.4254786,11.8102073 87.5900538,11.7816281 87.7436373,11.7212636 C87.8680484,11.6637179 87.9708724,11.5690627 88.0375064,11.4507409 C88.1185036,11.2998291 88.1699549,11.135281 88.1891808,10.9656659 C88.2069388,10.7234431 88.2069388,10.4802761 88.1891808,10.2380533 L88.1891808,3.09252459 L89.2224626,3.09252459 L89.2224626,10.2007398 C89.2264522,10.5605122 89.1947025,10.9198072 89.1276662,11.273502 C89.0731053,11.5630704 88.9603015,11.8389935 88.7958784,12.0850699 C88.6413487,12.3077173 88.428416,12.4850159 88.1797012,12.59813 C87.8811306,12.7261379 87.5572107,12.7867005 87.2317362,12.775369 L87.2980938,12.7846973 Z M57.2950026,2.07573265 L56.2427615,2.07573265 L56.2427615,1.0589407 L57.2760433,1.0589407 L57.2760433,2.07573265 L57.2950026,2.07573265 Z M80.0461618,5.58319843 C80.2015029,5.28220851 80.4176234,5.01557548 80.6812983,4.79961565 C80.9488076,4.58055508 81.2537329,4.40999519 81.581865,4.29588386 C81.9111171,4.18369021 82.2572352,4.12692446 82.6056672,4.12797327 L84.2740855,4.127959 L83.7337455,4.40782426 L83.7337455,8.96939546 L82.6435858,8.96939546 C82.2730858,8.96598503 81.9053514,8.90619851 81.5534261,8.79215649 C81.2262692,8.69339538 80.9208112,8.53519364 80.6528594,8.32573817 C80.3959496,8.12526056 80.1885268,7.87011984 80.0461618,7.57946886 C79.8951052,7.26150976 79.8204995,6.91358604 79.8281298,6.56267691 C79.8228558,6.21290464 79.9041949,5.86712729 80.0651211,5.55521333 L80.0461618,5.58319843 Z M80.0651211,9.15596279 C80.4782907,9.43911929 80.9410877,9.64468695 81.4301906,9.76230661 C81.9662586,9.89544892 82.5172996,9.96127081 83.07017,9.9582023 L83.3450799,9.9582023 L83.7337455,9.26790318 L83.7337455,10.2846951 C83.7790018,10.718907 83.6055173,11.1474387 83.2692427,11.4320842 C82.8825804,11.6833128 82.4235704,11.8044167 81.961051,11.7772338 C81.6707905,11.7793152 81.3812774,11.7480083 81.0984029,11.6839501 C80.7986787,11.6079911 80.5067283,11.504941 80.2262751,11.376114 L79.903967,12.3089506 C80.2479111,12.437973 80.599264,12.5469919 80.9562081,12.6354435 C81.2664399,12.7103089 81.5847493,12.7478965 81.9041731,12.7473839 C82.7050791,12.8181384 83.5003246,12.5617844 84.1034518,12.038428 C84.5686802,11.5274374 84.8134785,10.8582939 84.7859866,10.1727547 L84.7859866,3.09252459 L83.07017,3.09252459 C82.4775203,3.0867691 81.8880354,3.17819435 81.3259145,3.36304722 C80.8196313,3.52974743 80.3500128,3.78929653 79.9418856,4.12797327 C79.5739425,4.42873655 79.2764358,4.80423159 79.0697579,5.22872051 C78.8604243,5.66292881 78.753486,6.13806578 78.7569294,6.61864711 C78.7416909,7.1513921 78.8588374,7.67974474 79.0981968,8.15782758 C79.323357,8.57915889 79.6485578,8.94077133 80.0461618,9.21193298 L80.0651211,9.15596279 Z M55.2284389,2.07573265 L54.1951571,2.07573265 L54.1951571,1.0589407 L55.2284389,1.0589407 L55.2284389,2.07573265 Z M44.5259145,3.08319622 L45.5971149,3.08319622 L45.5971149,12.6261151 L44.7155075,12.6261151 L37.8332818,4.04401797 L38.4399794,5.43394457 L38.4399794,12.6261151 L37.3782586,12.6261151 L37.3782586,3.08319622 L38.4020608,3.08319622 L44.971458,11.2921587 L44.5259145,10.1261129 L44.5259145,3.08319622 Z M4.1805255,12.6914137 L0,3.08319622 L1.26079341,3.08319622 L1.82009274,4.50110793 L4.66398764,11.3014871 L4.93889748,11.9544727 L4.83462133,10.9096957 L8.13353941,3.09252459 L9.30901597,3.09252459 L5.14744977,12.6914137 L4.1994848,12.6914137 L4.1805255,12.6914137 Z M22.6848016,3.08319622 L23.784441,3.08319622 L23.784441,12.6167867 L22.6848016,12.6167867 L22.6848016,3.08319622 Z M34.4395672,7.85931985 C34.4888569,8.87927069 34.1112257,9.87453788 33.3947018,10.6131187 C32.6781779,11.3516995 31.68537,11.769058 30.6477074,11.7679054 C29.6159847,11.7508872 28.6341817,11.3278964 27.9216598,10.5934408 C27.2091379,9.85898517 26.825279,8.87427446 26.8558475,7.85931985 C26.8065578,6.83936901 27.184189,5.84410182 27.9007129,5.105521 C28.6172368,4.36694017 29.6100448,3.94958169 30.6477074,3.9507343 C31.67943,3.96775253 32.661233,4.39074328 33.3737549,5.1251989 C34.0862768,5.85965452 34.4701358,6.84436524 34.4395672,7.85931985 Z M30.6477074,2.91528563 C29.3147526,2.89982402 28.0324758,3.41728239 27.0943469,4.34923196 C26.1562179,5.28118153 25.6425453,6.54784286 25.6708913,7.85931985 C25.5911956,9.65152442 26.5174369,11.3421943 28.082758,12.2617043 C29.6480791,13.1812142 31.5999374,13.1812142 33.1652585,12.2617043 C34.7305796,11.3421943 35.6568209,9.65152442 35.5771252,7.85931985 C35.6185909,6.55223482 35.115723,5.28519504 34.1850194,4.35173179 C33.2543159,3.41826853 31.9765389,2.89938365 30.6477074,2.91528563 Z M20.8836682,10.0328292 C20.8836682,11.6652934 19.4996394,12.7287271 17.5657908,12.7287271 C16.0909421,12.7550879 14.6633703,12.2165853 13.584338,11.2268601 L14.2668727,10.433949 C15.1448982,11.3084273 16.3450108,11.7962884 17.5942298,11.7865621 C18.9024214,11.7865621 19.7555899,11.1055914 19.7555899,10.1634264 C19.7555899,9.27723155 19.2721278,8.77349976 17.2340031,8.35372327 C14.9968058,7.87797658 13.9730036,7.16902073 13.9730036,5.55521333 C13.9730036,4.05334634 15.3191139,2.95259909 17.1676455,2.95259909 C18.4165505,2.91619752 19.6351577,3.33474083 20.5897991,4.12797327 L19.9546625,4.95819788 C19.1671014,4.28271774 18.1554556,3.91438228 17.1107676,3.9227492 C15.8499742,3.9227492 15.044204,4.60371996 15.044204,5.46192967 C15.044204,6.39476632 15.5466255,6.86118464 17.6795466,7.32760296 C19.8124678,7.79402128 20.8457496,8.5682757 20.8457496,10.0235009 L20.8836682,10.0328292 Z M11.878001,12.6167867 L10.8162803,12.6167867 L10.8162803,3.08319622 L11.9159196,3.08319622 L11.9159196,12.6261151 L11.878001,12.6167867 Z M75.6760433,13.6895489 L76.7093251,13.6895489 L76.7093251,14.7063408 L75.7044822,14.7063408 L75.7044822,13.6895489 L75.6760433,13.6895489 Z M73.6094796,13.6895489 L74.6427615,13.6895489 L74.6427615,14.7063408 L73.6379186,14.7063408 L73.6379186,13.6895489 L73.6094796,13.6895489 Z M8.67387944,37.1970323 L17.670067,37.1970323 L17.670067,41.6000213 L0.218031942,41.6000213 L0.218031942,37.5608386 L8.06718187,31.2455346 C10.9963936,28.8668011 12.1434312,27.6074716 12.1434312,25.6485147 C12.2147241,24.8114128 11.900112,23.9870727 11.2864629,23.4031042 C10.6728138,22.8191356 9.82504247,22.5373136 8.97722823,22.6354523 C7.1571355,22.6354523 5.91530139,23.6242592 4.1615662,25.7417983 L0.521380732,22.8966466 C2.8438949,19.7903005 5.10005152,18.1205229 9.31849562,18.1205229 C14.2005152,18.1205229 17.4425554,20.9190329 17.4425554,25.2660517 L17.4425554,25.3313502 C17.4425554,29.2026223 15.42339,31.1242658 11.2428645,34.2959104 L6.08593509,38.2044959 L5.05265327,38.9507652 L8.67387944,37.1970323 Z M86.5776404,30.0794887 C86.6553202,31.9705587 85.9437545,33.810635 84.608155,35.1724879 C83.2725555,36.5343409 81.4291069,37.2995021 79.5058217,37.290316 C77.5674927,37.2888356 75.7126613,36.51378 74.3654793,35.1423842 C73.0182974,33.7709884 72.2939822,31.9205406 72.3581659,30.0141902 L72.3581659,29.9488916 C72.2804861,28.0578217 72.9920518,26.2177454 74.3276513,24.8558924 C75.6632508,23.4940395 77.5066994,22.7288783 79.4299845,22.7380643 C81.3683136,22.7395447 83.223145,23.5146004 84.570327,24.8859962 C85.9175089,26.257392 86.6418241,28.1078398 86.5776404,30.0141902 L86.5776404,30.0794887 Z M79.4963421,18.0365677 C76.200489,17.9330335 73.0027886,19.1487988 70.6338663,21.4060798 C68.264944,23.6633608 66.9272139,26.7692827 66.9263266,30.0141902 L66.9263266,30.0794887 C66.9263266,36.6653155 72.1496136,41.9918127 79.4299845,41.9918127 C82.7258376,42.0953468 85.923538,40.8795816 88.2924603,38.6223006 C90.6613826,36.3650196 91.9991128,33.2590976 92,30.0141902 L92,29.9488916 C92,23.3630649 86.776713,18.0365677 79.4963421,18.0365677 Z" id="Shape" fill="#A09EA4"></path>
                <polygon id="Shape" fill="#254081" points="31.9797571 17 33 17.9756098 32.0202429 19 31 18.0162602"></polygon>
                <polygon id="Shape" fill="#A5A4A9" points="35 18.0162602 36.0243902 19 37 17.9756098 35.9756098 17"></polygon>
                <polygon id="Shape" fill="#C4D94B" points="32 19.0208333 33.0208333 20 34 18.9791667 32.9791667 18"></polygon>
                <polygon id="Shape" fill="#6CBE55" points="37 20.026178 38.0208333 21 39 19.9842932 37.9791667 19"></polygon>
                <rect id="Rectangle-path" fill="#C4D94B" transform="translate(33.000000, 20.000000) rotate(-46.230000) translate(-33.000000, -20.000000) " x="32" y="19" width="2" height="2"></rect>
                <polygon id="Shape" fill="#22BCBD" points="35 20.0208333 36.0208333 21 37 19.9791667 35.9791667 19"></polygon>
                <polygon id="Shape" fill="#6CBE55" points="33 21.0222222 34.0222222 22 35 20.9777778 33.9777778 20"></polygon>
                <polygon id="Shape" fill="#56BA6C" points="36 21.0147059 37.0074074 22 38 20.9852941 36.9777778 20"></polygon>
                <rect id="Rectangle-path" fill="#2E89C9" transform="translate(42.000000, 19.000000) rotate(-10.380000) translate(-42.000000, -19.000000) " x="41" y="18" width="2" height="2"></rect>
                <rect id="Rectangle-path" fill="#1C4176" transform="translate(39.000000, 19.000000) rotate(-10.390000) translate(-39.000000, -19.000000) " x="38" y="18" width="2" height="2"></rect>
                <rect id="Rectangle-path" fill="#22BCBD" transform="translate(43.000000, 21.000000) rotate(-10.390000) translate(-43.000000, -21.000000) " x="42" y="20" width="2" height="2"></rect>
                <rect id="Rectangle-path" fill="#C4D94B" transform="translate(40.000000, 21.000000) rotate(-10.380000) translate(-40.000000, -21.000000) " x="39" y="20" width="2" height="2"></rect>
                <rect id="Rectangle-path" fill="#A5A4A9" transform="translate(43.000000, 24.000000) rotate(-10.380000) translate(-43.000000, -24.000000) " x="42" y="23" width="2" height="2"></rect>
                <rect id="Rectangle-path" fill="#22BCBD" transform="translate(38.000000, 21.000000) rotate(-10.380000) translate(-38.000000, -21.000000) " x="37" y="20" width="2" height="2"></rect>
                <rect id="Rectangle-path" fill="#6CBE55" transform="translate(40.000000, 24.000000) rotate(-10.380000) translate(-40.000000, -24.000000) " x="39" y="23" width="2" height="2"></rect>
                <rect id="Rectangle-path" fill="#A5A4A9" transform="translate(37.500000, 23.500000) rotate(-10.400000) translate(-37.500000, -23.500000) " x="37" y="23" width="1" height="1"></rect>
                <rect id="Rectangle-path" fill="#56BA6C" transform="translate(39.500000, 24.500000) rotate(-10.380000) translate(-39.500000, -24.500000) " x="39" y="24" width="1" height="1"></rect>
                <polygon id="Shape" fill="#254081" points="47.6482759 24 47 25.3586207 48.3586207 26 49 24.6482759"></polygon>
                <polygon id="Shape" fill="#22BCBD" points="43.6465517 23 43 24.3534483 44.3534483 25 45 23.6465517"></polygon>
                <polygon id="Shape" fill="#6CBE55" points="44.6465517 26 44 27.3534483 45.3534483 28 46 26.637931"></polygon>
                <polygon id="Shape" fill="#C4D94B" points="43.640884 25 43 26.3555556 44.3480663 27 45 25.6444444"></polygon>
                <polygon id="Shape" fill="#C4D94B" points="43.6519337 29 43 30.359116 44.359116 31 45 29.640884"></polygon>
                <polygon id="Shape" fill="#2E89C9" points="41.6483516 25 41 26.3555556 42.3516484 27 43 25.6444444"></polygon>
                <polygon id="Shape" fill="#A5A4A9" points="42.640884 26 42 27.359116 43.3480663 28 44 26.640884"></polygon>
                <polygon id="Shape" fill="#6CBE55" points="41.640625 26 41 27.3543307 42.359375 28 43 26.6456693"></polygon>
                <polygon id="Shape" fill="#22BCBD" points="41.640625 29 41 30.3543307 42.359375 31 43 29.6456693"></polygon>
                <polygon id="Shape" fill="#2E89C9" points="48.2949153 33 47 33.7050847 47.7118644 35 49 34.2881356"></polygon>
                <polygon id="Shape" fill="#22BCBD" points="45.2827004 31 44 31.7088608 44.7004219 33 46 32.2911392"></polygon>
                <polygon id="Shape" fill="#22BCBD" points="44.2911392 35 43 35.7088608 43.7088608 37 45 36.2911392"></polygon>
                <polygon id="Shape" fill="#254081" points="44.2972973 32 43 32.7065217 43.7135135 34 45 33.2934783"></polygon>
                <polygon id="Shape" fill="#56BA6C" points="43.2972973 36 42 36.7065217 42.7135135 38 44 37.2934783"></polygon>
                <polygon id="Shape" fill="#1C4176" points="43.2934783 31 42 31.7065217 42.7065217 33 44 32.2934783"></polygon>
                <polygon id="Shape" fill="#C4D94B" points="42.2934783 33 41 33.7065217 41.7065217 35 43 34.2934783"></polygon>
                <polygon id="Shape" fill="#A5A4A9" points="42.2923077 31 41 31.7076923 41.7076923 33 43 32.2923077"></polygon>
                <rect id="Rectangle-path" fill="#22BCBD" transform="translate(39.500000, 35.500000) rotate(-28.720000) translate(-39.500000, -35.500000) " x="39" y="35" width="1" height="1"></rect>
                <rect id="Rectangle-path" fill="#6CBE55" transform="translate(43.000000, 42.000000) rotate(-82.950000) translate(-43.000000, -42.000000) " x="42" y="41" width="2" height="2"></rect>
                <rect id="Rectangle-path" fill="#1C4176" transform="translate(43.000000, 38.000000) rotate(-82.940000) translate(-43.000000, -38.000000) " x="42" y="37" width="2" height="2"></rect>
                <rect id="Rectangle-path" fill="#22BCBD" transform="translate(39.000000, 42.000000) rotate(-82.940000) translate(-39.000000, -42.000000) " x="38" y="41" width="2" height="2"></rect>
                <rect id="Rectangle-path" fill="#6CBE55" transform="translate(40.000000, 38.000000) rotate(-82.960000) translate(-40.000000, -38.000000) " x="39" y="37" width="2" height="2"></rect>
                <rect id="Rectangle-path" fill="#A5A4A9" transform="translate(38.000000, 40.000000) rotate(-82.970000) translate(-38.000000, -40.000000) " x="37" y="39" width="2" height="2"></rect>
                <rect id="Rectangle-path" fill="#A5A4A9" transform="translate(40.000000, 37.000000) rotate(-82.940000) translate(-40.000000, -37.000000) " x="39" y="36" width="2" height="2"></rect>
                <rect id="Rectangle-path" fill="#6CBE55" transform="translate(38.000000, 38.000000) rotate(-82.940000) translate(-38.000000, -38.000000) " x="37" y="37" width="2" height="2"></rect>
                <rect id="Rectangle-path" fill="#A5A4A9" transform="translate(37.500000, 36.500000) rotate(-82.930000) translate(-37.500000, -36.500000) " x="37" y="36" width="1" height="1"></rect>
                <rect id="Rectangle-path" fill="#A5A4A9" transform="translate(36.500000, 37.500000) rotate(-82.950000) translate(-36.500000, -37.500000) " x="36" y="37" width="1" height="1"></rect>
                <polygon id="Shape" fill="#C4D94B" points="34 42.9641694 32.961039 42 32 43.0358306 33.038961 44"></polygon>
                <polygon id="Shape" fill="#6CBE55" points="34 14.9641694 32.961039 14 32 15.0358306 33.038961 16"></polygon>
                <polygon id="Shape" fill="#22BCBD" points="37 41.9674797 35.9593496 41 35 42.0406504 36.0325203 43"></polygon>
                <polygon id="Shape" fill="#6CBE55" points="33 41.9593496 31.9635628 41 31 42.0406504 32.0364372 43"></polygon>
                <polygon id="Shape" fill="#2E89C9" points="35 39.9633508 33.9583333 39 33 40.0366492 34.03125 41"></polygon>
                <polygon id="Shape" fill="#C4D94B" points="33 39.9583333 31.96875 39 31 40.03125 32.0416667 41"></polygon>
                <polygon id="Shape" fill="#C4D94B" points="35 37.96875 33.9583333 37 33 38.0416667 34.03125 39"></polygon>
                <polygon id="Shape" fill="#A5A4A9" points="34 37.96875 32.96875 37 32 38.0416667 33.0416667 39"></polygon>
                <polygon id="Shape" fill="#1C4176" points="35 37.962963 33.962963 37 33 38.037037 34.037037 39"></polygon>
                <polygon id="Shape" fill="#A5A4A9" points="33 37.962963 31.962963 37 31 38.037037 32.037037 39"></polygon>
                <rect id="Rectangle-path" fill="#2E89C9" transform="translate(25.000000, 42.000000) rotate(-11.330000) translate(-25.000000, -42.000000) " x="24" y="41" width="2" height="2"></rect>
                <rect id="Rectangle-path" fill="#22BCBD" transform="translate(27.000000, 42.000000) rotate(-11.330000) translate(-27.000000, -42.000000) " x="26" y="41" width="2" height="2"></rect>
                <rect id="Rectangle-path" fill="#6CBE55" transform="translate(25.000000, 38.000000) rotate(-11.534621) translate(-25.000000, -38.000000) " x="24" y="37" width="2" height="2"></rect>
                <rect id="Rectangle-path" fill="#C4D94B" transform="translate(27.000000, 38.000000) rotate(-11.330000) translate(-27.000000, -38.000000) " x="26" y="37" width="2" height="2"></rect>
                <rect id="Rectangle-path" fill="#254081" transform="translate(31.000000, 38.000000) rotate(-11.320000) translate(-31.000000, -38.000000) " x="30" y="37" width="2" height="2"></rect>
                <rect id="Rectangle-path" fill="#2E89C9" transform="translate(27.000000, 37.000000) rotate(-11.534621) translate(-27.000000, -37.000000) " x="26" y="36" width="2" height="2"></rect>
                <rect id="Rectangle-path" fill="#6CBE55" transform="translate(29.500000, 36.500000) rotate(-11.310000) translate(-29.500000, -36.500000) " x="29" y="36" width="1" height="1"></rect>
                <rect id="Rectangle-path" fill="#A5A4A9" transform="translate(26.500000, 35.500000) rotate(-11.310000) translate(-26.500000, -35.500000) " x="26" y="35" width="1" height="1"></rect>
                <polygon id="Shape" fill="#22BCBD" points="20.375 35 21 33.6271777 19.625 33 19 34.3728223"></polygon>
                <polygon id="Shape" fill="#C4D94B" points="21.3766234 37 22 35.6320346 20.6233766 35 20 36.3766234"></polygon>
                <rect id="Rectangle-path" fill="#2E89C9" transform="translate(21.000000, 32.000000) rotate(-65.450000) translate(-21.000000, -32.000000) " x="20" y="31" width="2" height="2"></rect>
                <rect id="Rectangle-path" fill="#22BCBD" transform="translate(24.000000, 34.000000) rotate(-65.500000) translate(-24.000000, -34.000000) " x="23" y="33" width="2" height="2"></rect>
                <polygon id="Shape" fill="#A5A4A9" points="25.3666667 38 26 36.6333333 24.6222222 36 24 37.3777778"></polygon>
                <rect id="Rectangle-path" fill="#254081" transform="translate(23.000000, 30.000000) rotate(-65.470000) translate(-23.000000, -30.000000) " x="22" y="29" width="2" height="2"></rect>
                <rect id="Rectangle-path" fill="#56BA6C" transform="translate(25.000000, 34.000000) rotate(-65.490000) translate(-25.000000, -34.000000) " x="24" y="33" width="2" height="2"></rect>
                <rect id="Rectangle-path" fill="#C4D94B" transform="translate(25.000000, 32.000000) rotate(-65.470000) translate(-25.000000, -32.000000) " x="24" y="31" width="2" height="2"></rect>
                <polygon id="Shape" fill="#1C4176" points="26.3700787 33 27 31.6190476 25.6299213 31 25 32.3809524"></polygon>
                <polygon id="Shape" fill="#6CBE55" points="26.3700787 31 27 29.6299213 25.6299213 29 25 30.3700787"></polygon>
                <polygon id="Shape" fill="#22BCBD" points="18.7272727 26 20 25.2727273 19.2727273 24 18 24.7272727"></polygon>
                <polygon id="Shape" fill="#6CBE55" points="20.7310924 28 22 27.2773109 21.2773109 26 20 26.7310924"></polygon>
                <polygon id="Shape" fill="#1C4176" points="20.7310924 26 22 25.2742616 21.2773109 24 20 24.7257384"></polygon>
                <polygon id="Shape" fill="#2E89C9" points="22.7311828 27 24 26.2756757 23.2688172 25 22 25.7243243"></polygon>
                <polygon id="Shape" fill="#6CBE55" points="24.7243243 25 26 24.2756757 25.2756757 23 24 23.7243243"></polygon>
                <polygon id="Shape" fill="#22BCBD" points="24.7204301 28 26 27.2756757 25.2688172 26 24 26.7243243"></polygon>
                <polygon id="Shape" fill="#C4D94B" points="24.7243243 27 26 26.2688172 25.2756757 25 24 25.7311828"></polygon>
                <polygon id="Shape" fill="#A5A4A9" points="25.7230769 28 27 27.2671756 26.2769231 26 25 26.7328244"></polygon>
                <polygon id="Shape" fill="#6CBE55" points="25.7328244 26 27 25.2769231 26.2671756 24 25 24.7230769"></polygon>
                <rect id="Rectangle-path" fill="#6CBE55" transform="translate(25.000000, 19.000000) rotate(-83.900000) translate(-25.000000, -19.000000) " x="24" y="18" width="2" height="2"></rect>
                <rect id="Rectangle-path" fill="#A5A4A9" transform="translate(25.000000, 21.000000) rotate(-83.890000) translate(-25.000000, -21.000000) " x="24" y="20" width="2" height="2"></rect>
                <rect id="Rectangle-path" fill="#22BCBD" transform="translate(27.000000, 19.000000) rotate(-83.890000) translate(-27.000000, -19.000000) " x="26" y="18" width="2" height="2"></rect>
                <rect id="Rectangle-path" fill="#C4D94B" transform="translate(26.000000, 21.000000) rotate(-83.880000) translate(-26.000000, -21.000000) " x="25" y="20" width="2" height="2"></rect>
                <rect id="Rectangle-path" fill="#2E89C9" transform="translate(31.000000, 20.000000) rotate(-83.910000) translate(-31.000000, -20.000000) " x="30" y="19" width="2" height="2"></rect>
                <rect id="Rectangle-path" fill="#22BCBD" transform="translate(26.000000, 24.000000) rotate(-83.890000) translate(-26.000000, -24.000000) " x="25" y="23" width="2" height="2"></rect>
                <rect id="Rectangle-path" fill="#6CBE55" transform="translate(30.000000, 21.000000) rotate(-83.880000) translate(-30.000000, -21.000000) " x="29" y="20" width="2" height="2"></rect>
                <rect id="Rectangle-path" fill="#1C4176" transform="translate(29.500000, 23.500000) rotate(-83.890000) translate(-29.500000, -23.500000) " x="29" y="23" width="1" height="1"></rect>
                <rect id="Rectangle-path" fill="#A5A4A9" transform="translate(31.500000, 22.500000) rotate(-83.920000) translate(-31.500000, -22.500000) " x="31" y="22" width="1" height="1"></rect>
                <path d="M40,32.2846044 C39.7244179,32.1310373 39.4332373,32.0067957 39.1313131,31.913951 C38.3711679,31.6754255 37.5658436,31.613725 36.7777778,31.7336331 C36.4335939,31.7936297 36.0955364,31.884152 35.7676768,32.0041099 L35.6666667,32.0041099 C35.4808204,32.0749427 35.2987627,32.1551895 35.1212121,32.2445337 L34.6565657,32.5049929 C34.3069631,32.7235196 33.9697528,32.9609632 33.6464646,33.2162467 C33.377453,31.3847723 33.3401271,29.5271479 33.5353535,27.6864987 C34.3636364,28.207417 34.1313131,29.6900306 33.959596,30.060684 C34.6608532,29.2580385 34.785687,28.107862 34.2727273,27.175598 C34.4113334,27.288158 34.536704,27.4158545 34.6464646,27.5562691 C34.9195795,27.9092439 35.081251,28.3344866 35.1111111,28.7784236 C35.1246734,28.9618344 35.1246734,29.145984 35.1111111,29.3293948 L35.1111111,29.4496067 C35.4634608,28.7706598 35.4634608,27.9647393 35.1111111,27.2857923 C34.9877284,27.0542994 34.8312253,26.8417269 34.6464646,26.6546798 L34.4646465,26.4743619 L34.6464646,26.5244502 C34.812592,26.581111 34.969215,26.6621531 35.1111111,26.764874 C35.4095688,26.9870726 35.6374467,27.2895616 35.7676768,27.6364104 C35.868004,27.8918763 35.9193883,28.1636646 35.9191919,28.4378231 C36.0997609,27.8941916 36.0372665,27.2999249 35.7474747,26.8049446 C35.5824657,26.5456839 35.3573546,26.3292998 35.0909091,26.1738321 C34.9452777,26.08514 34.7892315,26.0144893 34.6262626,25.9634613 L34.4040404,25.9634613 C34.4040404,25.9634613 34.4040404,25.9634613 34.4040404,25.9634613 L34.6262626,25.9634613 C34.7807417,25.9477883 34.9364301,25.9477883 35.0909091,25.9634613 C35.325696,26.0038809 35.5493491,26.0926039 35.7474747,26.2239204 C35.9266114,26.3417113 36.0753797,26.4995456 36.1818182,26.6847327 C36.150673,26.3465578 35.9875679,26.0338234 35.7272727,25.8131964 C35.5367662,25.6525264 35.3124344,25.5361519 35.0707071,25.4725959 C34.9115055,25.4138431 34.7450051,25.3767739 34.5757576,25.3624017 C34.3756393,25.3560057 34.1763035,25.3900903 33.989899,25.4625783 C34.1343933,25.2590666 34.3446589,25.1106212 34.5858586,25.0418366 C34.7360394,24.9951632 34.8932773,24.9748232 35.0505051,24.9817306 C35.1831822,24.9864747 35.313615,25.0171117 35.4343434,25.0718896 C35.3229261,24.9430268 35.1895954,24.83453 35.040404,24.7513245 C34.8968678,24.6717026 34.7390294,24.6206583 34.5757576,24.6010596 C34.1226866,24.5508059 33.6813579,24.7657415 33.4444444,25.1520308 C33.3939394,25.0518542 33.3333333,24.9516776 33.2929293,24.8414834 C33.1755263,24.571869 33.0907599,24.2894042 33.040404,24 C32.9905457,24.2927542 32.905776,24.5785931 32.7878788,24.8515011 C32.7427115,24.9574958 32.6921412,25.0611454 32.6363636,25.1620485 C32.4274306,24.8157346 32.0572183,24.5965027 31.6507017,24.5783605 C31.2441851,24.5602182 30.8556142,24.7455866 30.6161616,25.0718896 C31.1291422,24.8616951 31.7205067,25.0175442 32.0606061,25.4525606 C31.4040769,25.2201358 30.6710242,25.4018867 30.2020202,25.913373 C30.0289495,26.1173678 29.9231772,26.3691268 29.8989899,26.6346444 C29.9787024,26.5306172 30.0740971,26.4393885 30.1818182,26.3641676 C30.6000899,26.0260059 31.1436781,25.8803025 31.6767677,25.9634613 C31.6767677,25.9634613 31.6767677,25.9634613 31.6767677,25.9634613 C31.0078697,26.085894 30.4460004,26.5339394 30.1818182,27.1555627 C30.0406285,27.5852191 30.0406285,28.0482374 30.1818182,28.4778938 C30.1773134,27.5837276 30.7708078,26.794844 31.6363636,26.5444855 C30.7157169,27.2583565 30.4396456,28.5220176 30.979798,29.5497833 C30.8282997,28.69667 31.1434041,27.8277558 31.8080808,27.265757 C31.2951211,28.1980209 31.4199549,29.3481974 32.1212121,30.1508429 C32.1212121,30.1508429 32.1212121,30.1508429 32.1212121,30.1508429 C31.9494949,29.7401189 31.7171717,28.2975759 32.5454545,27.7766576 C32.7415285,29.617271 32.7042005,31.4750005 32.4343434,33.3064056 C31.821045,32.8111717 31.1410935,32.4031956 30.4141414,32.0942688 L30.1616162,32.0041099 C29.5336505,31.7976617 28.8731042,31.7060161 28.2121212,31.7336331 C27.5109485,31.7596071 26.8229257,31.9301934 26.1919192,32.2345161 L26,32.3346927 L26.1818182,32.2846044 C26.8371369,32.0955442 27.521929,32.0276301 28.2020202,32.0842512 C28.8766495,32.1485656 29.5356232,32.3246479 30.1515152,32.6051695 C30.9907389,32.9998049 31.7722434,33.505276 32.4747475,34.1078184 C31.7419251,34.8216657 30.9660877,35.4907399 30.1515152,36.1113503 L30.0808081,36.1113503 C29.9643369,35.9135503 29.7348767,35.8099424 29.5079725,35.8526984 C29.2810684,35.8954545 29.1059133,36.075305 29.0707071,36.3016858 C29.02833,36.4624755 29.0658554,36.6336683 29.1717172,36.7624981 C29.4163448,37.0154978 29.8022213,37.0731074 30.1111111,36.9027454 C31.077699,36.3056865 31.9607237,35.5848865 32.7373737,34.7589662 L33,34.5185424 L33.2626263,34.7589662 L34.5656566,35.9610854 L35.040404,36.3818271 C35.2440293,36.5528158 35.4639165,36.7037892 35.6969697,36.8326218 C35.9969951,37.053035 36.4070453,37.053035 36.7070707,36.8326218 C36.8061659,36.7005851 36.8463276,36.5340222 36.8181818,36.3718094 C36.7704627,36.1733682 36.6142337,36.0184284 36.4141414,35.971103 C36.2000742,35.9218141 35.9770896,36.0047433 35.8484848,36.1814739 L35.6262626,36.0412267 C35.3979641,35.879629 35.1787793,35.7057281 34.969697,35.5203084 L34.5050505,35.0995667 C34.1818182,34.8090545 33.8282828,34.4884894 33.4949495,34.1679243 C33.8183823,33.8910216 34.1554989,33.6302404 34.5050505,33.3865469 L34.969697,33.0860171 C35.1818182,32.9658052 35.4040404,32.8455933 35.6262626,32.735399 C35.9516368,32.5780238 36.2894677,32.4473569 36.6363636,32.3447103 C37.413332,32.1197336 38.2309341,32.0684137 39.030303,32.1944454 C39.3210251,32.2404598 39.6079802,32.3074215 39.8888889,32.3947986" id="Shape" fill="#69757D"></path>
                <path d="M33.2991973,52.3036697 L33.8912232,52.3036697 L33.8912232,47.0376815 L33.2991973,47.0376815 L33.2991973,52.3036697 Z M17.6773527,51.7196066 L16.7224723,49.4681376 C16.9317133,49.2903869 17.1708531,49.1501082 17.4290838,49.0536412 C17.6705502,48.965646 17.926027,48.9209806 18.1834394,48.921756 C18.4556452,48.9239749 18.7248192,48.9783654 18.9759902,49.0819023 C19.2193413,49.1766125 19.4451811,49.3102939 19.6444065,49.4775579 L18.689526,51.729027 L17.6678039,51.729027 L17.6773527,51.7196066 Z M14.3925639,51.7196066 L13.7814404,51.7196066 C13.5677215,51.720161 13.3551793,51.6883908 13.1512193,51.6254029 C12.9644224,51.5693624 12.7896453,51.4799562 12.6355838,51.3616324 C12.4859292,51.2455878 12.3650927,51.0973793 12.282278,50.9282953 C12.1962096,50.7455218 12.1537444,50.5457196 12.1581436,50.3442322 C12.1542016,50.1417468 12.2000726,49.9413364 12.2918268,49.7601691 C12.3804404,49.5867243 12.5038956,49.4328783 12.6546814,49.3079912 C12.8077178,49.1813525 12.982297,49.0824791 13.1703169,49.0159597 C13.3632735,48.9474124 13.5668063,48.9123529 13.7718916,48.9123356 L14.3734663,48.9123356 L14.3734663,51.7384473 L14.3925639,51.7196066 Z M30.969289,51.7196066 L30.0144085,51.7196066 C29.732756,51.7297608 29.4523166,51.6782878 29.1932113,51.5688806 C28.9956336,51.4711155 28.8325607,51.3168025 28.7253198,51.1261231 C28.7517896,50.9452215 28.7581933,50.7620123 28.7444175,50.5797415 L28.7444175,48.695667 L28.1523916,48.695667 L28.1523916,50.6739452 C28.1671773,50.9688158 28.068239,51.2582727 27.8754762,51.4840973 C27.6563802,51.6993054 27.3529577,51.809408 27.0447302,51.7855492 C26.8816554,51.786464 26.7198058,51.757723 26.56729,51.7007658 C26.4333868,51.6633419 26.3072915,51.6027371 26.1948866,51.5217788 C26.0906599,51.4293178 26.0062456,51.3172116 25.9466177,51.1920657 C25.8863238,51.0651484 25.8537889,50.9271301 25.8511296,50.7869897 L25.8511296,48.695667 L25.2495549,48.695667 L25.2495549,50.7304675 C25.253397,50.8885274 25.2241407,51.0456694 25.1636157,51.1920657 C25.1151187,51.310709 25.0400362,51.4169872 24.9439932,51.502938 C24.8497921,51.5845388 24.7391462,51.6455387 24.6193338,51.6819251 C24.4956819,51.7198666 24.3668754,51.7389277 24.2373816,51.7384473 L23.091525,51.7384473 L23.091525,48.695667 L22.4899503,48.695667 L22.4899503,51.729027 L19.3579424,51.729027 L20.3796645,49.2608894 C20.2192205,49.1219514 20.0502009,48.9929589 19.8735778,48.8746541 C19.6969839,48.7577091 19.5118693,48.6538019 19.3197472,48.5637818 C19.1361789,48.4737731 18.9443362,48.4012225 18.7468189,48.3471133 C18.5599984,48.297416 18.3673832,48.2720794 18.1738906,48.2717503 C17.9772229,48.2715811 17.7813861,48.2969192 17.5914135,48.3471133 C17.3915097,48.3993374 17.1966104,48.4686836 17.0089364,48.5543614 C16.81512,48.6448167 16.6297884,48.7519981 16.4551057,48.8746541 C16.2816533,48.9931412 16.1158219,49.1221342 15.9585679,49.2608894 L17.0089364,51.7196066 L14.975041,51.7196066 L14.975041,48.3188521 L14.0201605,48.3188521 C13.6798115,48.3141688 13.341024,48.3650992 13.017536,48.4695781 C12.7322738,48.5620463 12.4668081,48.7057693 12.234534,48.8934949 C12.0206391,49.0681863 11.8479313,49.2867933 11.7284474,49.5340802 C11.6090801,49.7846008 11.5471356,50.0579934 11.5470201,50.3348118 C11.5381728,50.6448598 11.6070525,50.9522672 11.747545,51.2297472 C11.8740872,51.4727753 12.0573683,51.6826509 12.282278,51.8420714 C12.5194508,52.0045627 12.7848525,52.1227064 13.06528,52.1906252 C13.3774743,52.2678472 13.6983105,52.3058297 14.0201605,52.3036697 L14.3734663,52.3036697 L14.3734663,52.463816 C14.3981254,52.7134092 14.2984363,52.9592797 14.1060998,53.1232421 C13.8830342,53.2681165 13.6182852,53.3375463 13.3517442,53.3210699 C13.1849457,53.3242729 13.0183301,53.3084676 12.8552063,53.273968 C12.6813097,53.2297249 12.5119019,53.1698106 12.3491197,53.094981 L12.1581436,53.6602033 C12.3579057,53.7348442 12.5619702,53.7977567 12.7692671,53.8486107 C12.9442461,53.891349 13.1237415,53.9134841 13.3040002,53.9145534 C13.7657338,53.9571352 14.2249191,53.8106736 14.5739912,53.5094773 C14.847463,53.2078276 14.9882877,52.8113673 14.9654922,52.4072938 L14.9654922,52.3036697 L24.1991864,52.3036697 C24.4682688,52.3101654 24.7345516,52.2485442 24.9726396,52.1246826 C25.191855,52.0076429 25.378715,51.8394669 25.5169214,51.6348232 C25.6590617,51.8699912 25.8638222,52.0622231 26.1089473,52.1906252 C26.3836713,52.328418 26.6889014,52.3964139 26.9969862,52.388453 C27.3260187,52.4024817 27.6536135,52.337844 27.9518667,52.2000456 C28.2034188,52.0794982 28.408012,51.8809657 28.5343437,51.6348232 C28.5871056,51.7217645 28.6478355,51.8037509 28.715771,51.8797529 C28.7951339,51.9667566 28.8887401,52.0399974 28.9926864,52.0964215 C29.1221157,52.1645275 29.2602102,52.2152204 29.403285,52.2471474 C29.5443952,52.279285 29.6882654,52.2982097 29.8329812,52.3036697 L31.5517661,52.3036697 L31.5517661,47.0376815 L30.9597402,47.0376815 L30.9597402,51.7478677 L30.969289,51.7196066 Z M84.4425956,51.4558362 C84.2871818,51.8249808 83.9877987,52.1169423 83.6118496,52.2659882 C83.4141806,52.3424475 83.203489,52.3808213 82.9911773,52.3790326 C82.8035483,52.3724147 82.6188787,52.3308636 82.4468954,52.2565678 C82.264132,52.1793905 82.0986314,52.0673393 81.9599064,51.9268548 C81.820475,51.7859122 81.7102024,51.6195284 81.635247,51.4369954 C81.5482332,51.2504442 81.4995517,51.0487318 81.492015,50.8435119 C81.4899892,50.6370948 81.5289155,50.4322805 81.6066006,50.2406081 C81.6791307,50.0590508 81.7860762,49.8927973 81.9217112,49.7507487 C82.0573007,49.6109036 82.2195521,49.4988552 82.3991514,49.4210357 C82.5916421,49.3375811 82.8000351,49.2958207 83.0102749,49.2985709 C83.2258331,49.2950808 83.4399788,49.3334927 83.640496,49.4116153 C83.8250737,49.4863971 83.9935728,49.5950878 84.1370339,49.731908 C84.2808837,49.8712052 84.3945812,50.0378551 84.471242,50.2217674 C84.554433,50.4187154 84.5966473,50.6301513 84.5953765,50.8435119 C84.5969473,51.0538536 84.5546956,51.2622707 84.471242,51.4558362 L84.4425956,51.4558362 Z M78.6846664,51.4558362 C78.5301708,51.8255897 78.2304759,52.1178552 77.8539203,52.2659882 C77.6562513,52.3424475 77.4455598,52.3808213 77.233248,52.3790326 C77.0230636,52.3812054 76.8147926,52.3394694 76.6221245,52.2565678 C76.4393611,52.1793905 76.2738605,52.0673393 76.1351355,51.9268548 C75.9957041,51.7859122 75.8854315,51.6195284 75.8104761,51.4369954 C75.7335402,51.2483965 75.6946188,51.0468072 75.6958905,50.8435119 C75.6941095,50.6371162 75.7330269,50.432348 75.8104761,50.2406081 C75.8832139,50.0591551 75.9901358,49.8929383 76.1255867,49.7507487 C76.2611762,49.6109036 76.4234276,49.4988552 76.6030269,49.4210357 C76.7955176,49.3375811 77.0039106,49.2958207 77.2141504,49.2985709 C77.4297086,49.2950808 77.6438544,49.3334927 77.8443715,49.4116153 C78.0289492,49.4863971 78.1974483,49.5950878 78.3409094,49.731908 C78.4847592,49.8712052 78.5984567,50.0378551 78.6751176,50.2217674 C78.7547926,50.4194501 78.7937461,50.6308125 78.7897032,50.8435119 C78.7915476,51.0538792 78.7492849,51.2623508 78.6655687,51.4558362 L78.6846664,51.4558362 Z M64.1609343,51.7196066 L63.5975548,51.7196066 C63.3837336,51.7215562 63.1709725,51.6897532 62.9673337,51.6254029 C62.77958,51.5671175 62.6046468,51.4744355 62.4516983,51.3522121 C62.3057723,51.2311076 62.1884475,51.0799938 62.1079413,50.9094546 C62.0214126,50.7234949 61.9789605,50.5205323 61.9838068,50.3159711 C61.9802686,50.1165415 62.0261595,49.9192776 62.1174901,49.7413284 C62.2067665,49.568302 62.3301238,49.414578 62.4803447,49.2891505 C62.633645,49.1651906 62.8083074,49.0694611 62.9959801,49.0065393 C63.1861519,48.9399228 63.386212,48.9049057 63.588006,48.9029152 L64.1800319,48.9029152 L64.1800319,51.729027 L64.1609343,51.7196066 Z M87.0780657,51.7196066 L85.0059751,51.7196066 C85.1325697,51.4477907 85.197734,51.1520665 85.1969512,50.8529323 C85.197978,50.5617991 85.1395215,50.2734476 85.0250727,50.0050988 C84.8117371,49.492264 84.3990427,49.0851203 83.8792161,48.8746541 C83.6078907,48.7585117 83.3155819,48.697632 83.0198237,48.695667 C82.733962,48.6945131 82.4510066,48.7522682 82.1890777,48.8652337 C81.3974053,49.2114234 80.8905553,49.9892523 80.8999891,50.8435119 C80.8993513,50.9954943 80.9153589,51.1470999 80.9477331,51.2956898 C80.9801242,51.4373921 81.0248513,51.5760722 81.0814164,51.7101862 L79.2193994,51.7101862 C79.3427083,51.4376427 79.404608,51.1419493 79.4008267,50.8435119 C79.4021161,50.5523536 79.3436491,50.2639508 79.2289482,49.9956784 C79.0156127,49.4828436 78.6029182,49.0756999 78.0830917,48.8652337 C77.8110077,48.7525709 77.5187763,48.6949107 77.2236992,48.695667 C76.9378375,48.6945131 76.6548821,48.7522682 76.3929532,48.8652337 C75.8803151,49.0846175 75.4756314,49.4940084 75.2661943,50.0050988 C75.1560217,50.2711141 75.1008317,50.556164 75.1038646,50.8435119 C75.1030764,50.9955017 75.1190856,51.1471233 75.1516086,51.2956898 C75.1840908,51.4373677 75.2288154,51.5760401 75.2852919,51.7101862 L73.3755309,51.7101862 L73.3755309,47 L72.7930538,47 L72.7930538,51.7101862 L70.8832929,51.7101862 L70.8832929,50.768149 C70.8853637,50.5516936 70.8564315,50.3360347 70.7973536,50.1275636 C70.7430755,49.9356009 70.6450991,49.7583934 70.5108895,49.6094432 C70.375137,49.4697855 70.2129258,49.3577649 70.0334492,49.2797301 C69.7989005,49.1916433 69.549053,49.1500286 69.2981913,49.1572653 L66.6245259,49.1572653 L67.7512849,47.0376815 L67.0924174,47.0376815 L65.9465608,49.1478449 C65.9631564,49.2614981 65.9952776,49.3724104 66.0420489,49.4775579 C66.0853154,49.5736442 66.143284,49.6626048 66.2139273,49.7413284 L69.2599961,49.7413284 C69.4264272,49.7373373 69.5919916,49.7661616 69.7469851,49.8261117 C69.8762295,49.8764777 69.9909832,49.9573421 70.0811933,50.061621 C70.1658222,50.1590411 70.2248505,50.2755099 70.2530718,50.4007544 C70.2692367,50.5416101 70.2692367,50.6838156 70.2530718,50.8246712 L70.2530718,51.7667084 L64.7816066,51.7667084 L64.7816066,48.3188521 L63.8267261,48.3188521 C63.4833097,48.3150017 63.1415172,48.3658991 62.8145528,48.4695781 C62.5323824,48.5580076 62.2698813,48.6986829 62.0410997,48.8840745 C61.6168697,49.2420537 61.3726466,49.7652339 61.3726833,50.3159711 C61.3557167,50.6418158 61.4248135,50.9664224 61.5732082,51.2580083 C61.7017985,51.4996687 61.8847056,51.7091161 62.1079413,51.8703325 C62.3438407,52.0371061 62.6094727,52.1585482 62.8909433,52.2283067 C63.2027217,52.3077298 63.52385,52.3457469 63.8458238,52.3413512 L75.6767929,52.3413512 C75.8705259,52.5482715 76.1042914,52.7148313 76.3643068,52.8312105 C76.6373527,52.9523856 76.933866,53.0134623 77.233248,53.0101976 C77.5385741,53.0112823 77.8408588,52.9503558 78.1212869,52.8312105 C78.3920902,52.7191047 78.6360589,52.5522281 78.8374472,52.3413512 L81.492015,52.3413512 C81.685748,52.5482715 81.9195135,52.7148313 82.1795289,52.8312105 C82.4524793,52.9526752 82.7490582,53.0137654 83.0484701,53.0101976 C83.3537962,53.0112823 83.6560809,52.9503558 83.936509,52.8312105 C84.207176,52.7188597 84.4510963,52.5520163 84.6526693,52.3413512 L87.6891892,52.3413512 L87.6891892,47.0376815 L87.0589681,47.0376815 L87.0589681,51.7478677 L87.0780657,51.7196066 Z M89.4079741,52.3036697 L90,52.3036697 L90,47.0376815 L89.4079741,47.0376815 L89.4079741,52.3036697 Z M45.4834722,53.5942607 L46.0945957,53.5942607 L46.0945957,52.9913569 L45.445277,52.9913569 L45.445277,53.5942607 L45.4834722,53.5942607 Z M51.3177919,51.7101862 L50.3629114,49.4587172 C50.572267,49.2811237 50.8113775,49.1408621 51.069523,49.0442208 C51.3109894,48.9562256 51.5664662,48.9115602 51.8238786,48.9123356 C52.0993013,48.9133277 52.3718382,48.9677421 52.6259782,49.0724819 C52.8692521,49.1673465 53.0950674,49.3010133 53.2943945,49.4681376 L52.339514,51.7196066 L51.2795967,51.7196066 L51.3177919,51.7101862 Z M55.5479124,51.7101862 L52.9697351,51.7101862 L54.0105549,49.251469 C53.8501579,49.1124748 53.6811346,48.9834795 53.5044682,48.8652337 C53.3278378,48.7483469 53.1427276,48.6444422 52.9506375,48.5543614 C52.767023,48.4644569 52.5751904,48.3919101 52.3777092,48.3376929 C52.1909105,48.2878887 51.998281,48.2625503 51.804781,48.2623299 C51.6081204,48.2622693 51.4122979,48.2876055 51.2223039,48.3376929 C51.0256266,48.3903451 50.8339356,48.4596864 50.6493756,48.5449411 C50.4555592,48.6353963 50.2702276,48.7425777 50.0955449,48.8652337 C49.9222498,48.9839307 49.7564312,49.1129138 49.5990071,49.251469 L50.6493756,51.7101862 L48.4340529,51.7101862 L48.4340529,48.3188521 L47.8324782,48.3188521 L47.8324782,52.463816 C47.8428542,52.6049362 47.8428542,52.7466126 47.8324782,52.8877328 C47.8222713,52.9864634 47.7931057,53.0823745 47.7465389,53.1703439 C47.7067987,53.2372165 47.6466365,53.2899748 47.5746604,53.3210699 C47.4867026,53.3556772 47.3923716,53.3717224 47.2977451,53.3681718 L47.1163178,53.3681718 L46.9539881,53.3681718 L46.8012073,53.9333941 C46.9597769,53.9769544 47.1235941,53.9991367 47.2881963,53.9993367 C47.4751958,54.0053875 47.6611894,53.9699768 47.8324782,53.8957126 C47.9756639,53.8285248 48.0977484,53.7243583 48.1857839,53.5942607 C48.2808607,53.4515009 48.3458114,53.2913081 48.37676,53.1232421 C48.4189563,52.9059842 48.438157,52.684989 48.4340529,52.463816 L48.4340529,52.3036697 L56.0730967,52.3036697 L56.0730967,47.0376815 L55.5001684,47.0376815 L55.5001684,51.7478677 L55.5479124,51.7101862 Z M10.229285,48.8275522 C10.0802338,48.6634914 9.89810348,48.5319395 9.69455195,48.441317 C9.46763391,48.3490067 9.22378455,48.3041004 8.97839159,48.3094318 L8.53914657,48.3094318 L8.53914657,48.8934949 L9.06433084,48.8934949 C9.2066016,48.8943266 9.346886,48.9265121 9.47492944,48.9876986 C9.59889894,49.0425231 9.70958314,49.1228139 9.7995888,49.2232079 C9.87958774,49.3235916 9.93806485,49.4389727 9.97146729,49.5623413 C10.0060987,49.7073748 10.0221388,49.8561235 10.0192113,50.0050988 L10.0192113,51.7101862 L7.22141152,51.7101862 L7.22141152,52.2942493 L10.6112372,52.2942493 L10.6112372,49.9956784 C10.6126329,49.7755114 10.5804433,49.5563903 10.5157492,49.3456727 C10.4602545,49.1541995 10.3624188,48.9772465 10.229285,48.8275522 Z M43.2967959,53.6036811 L43.9079194,53.6036811 L43.9079194,53.0007772 L43.2967959,53.0007772 L43.2967959,53.6036811 Z M39.6682501,51.7196066 L39.0475778,51.7196066 C38.8337449,51.7217188 38.6209578,51.6899119 38.4173567,51.6254029 C38.2296029,51.5671175 38.0546697,51.4744355 37.9017212,51.3522121 C37.7592534,51.230134 37.6452429,51.0790933 37.5675131,50.9094546 C37.4813023,50.7233921 37.4388654,50.5205025 37.4433786,50.3159711 C37.436878,50.1173239 37.4794822,49.9201005 37.5675131,49.7413284 C37.6567894,49.568302 37.7801467,49.414578 37.9303676,49.2891505 C38.0837845,49.1653599 38.2584145,49.0696482 38.4460031,49.0065393 C38.6361749,48.9399228 38.836235,48.9049057 39.038029,48.9029152 L39.6300549,48.9029152 L39.6300549,51.729027 L39.6682501,51.7196066 Z M46.0754981,48.3188521 L45.4548258,48.3188521 L45.4548258,51.7196066 L43.2013079,51.7196066 L43.2013079,48.3188521 L42.609282,48.3188521 L42.609282,51.7196066 L40.2411784,51.7196066 L40.2411784,48.3188521 L39.2862979,48.3188521 C38.9428814,48.3150017 38.6010889,48.3658991 38.2741246,48.4695781 C37.9920457,48.5582195 37.7295834,48.698874 37.5006714,48.8840745 C37.2913255,49.057024 37.1220064,49.2722508 37.0041336,49.5152394 C36.8894176,49.7636136 36.8307721,50.0336117 36.8322551,50.3065507 C36.8152885,50.6323954 36.8843853,50.9570021 37.03278,51.248588 C37.1613703,51.4902483 37.3442774,51.6996957 37.5675131,51.8609122 C37.8034125,52.0276857 38.0690445,52.1491278 38.350515,52.2188863 C38.6622934,52.2983095 38.9834217,52.3363265 39.3053955,52.3319308 L46.0564005,52.3319308 L46.0564005,48.3188521 L46.0754981,48.3188521 Z M42.2559762,53.6036811 L42.8670997,53.6036811 L42.8670997,53.0007772 L42.217781,53.0007772 L42.217781,53.6036811 L42.2559762,53.6036811 Z M2.39926511,47.0094204 L1.75949519,47.0094204 L1.75949519,47.6123242 L2.3706187,47.6123242 L2.3706187,47.0376815 L2.39926511,47.0094204 Z M63.7694333,47.0094204 L63.1201146,47.0094204 L63.1201146,47.6123242 L63.7312381,47.6123242 L63.7312381,47.0376815 L63.7694333,47.0094204 Z M40.2698248,47.0094204 L39.6205061,47.0094204 L39.6205061,47.6123242 L40.2316296,47.6123242 L40.2316296,47.0376815 L40.2698248,47.0094204 Z M5.89412766,53.6036811 L6.50525116,53.6036811 L6.50525116,53.0007772 L5.88457885,53.0007772 L5.88457885,53.6036811 L5.89412766,53.6036811 Z M39.2003587,47.0094204 L38.5796864,47.0094204 L38.5796864,47.6123242 L39.1908099,47.6123242 L39.1908099,47.0376815 L39.2003587,47.0094204 Z M3.42098722,47.0094204 L2.80031491,47.0094204 L2.80031491,47.6123242 L3.41143842,47.6123242 L3.41143842,47.0376815 L3.42098722,47.0094204 Z M4.85330794,53.6036811 L5.46443144,53.6036811 L5.46443144,53.0007772 L4.84375913,53.0007772 L4.84375913,53.6036811 L4.85330794,53.6036811 Z M2.82896133,51.7196066 L2.23693543,51.7196066 C2.02310259,51.7217188 1.81031541,51.6899119 1.60671432,51.6254029 C1.418871,51.5673273 1.24389953,51.474625 1.09107886,51.3522121 C0.944927175,51.2313205 0.827561,51.0801533 0.747321889,50.9094546 C0.660793227,50.7234949 0.618341085,50.5205323 0.623187427,50.3159711 C0.619649192,50.1165415 0.665540115,49.9192776 0.756870694,49.7413284 C0.846573938,49.5685725 0.969869135,49.4149259 1.11972527,49.2891505 C1.27314218,49.1653599 1.44777215,49.0696482 1.63536073,49.0065393 C1.82851043,48.938713 2.03191611,48.9036754 2.23693543,48.9029152 L2.81941252,48.9029152 L2.81941252,51.729027 L2.82896133,51.7196066 Z M6.3906655,48.3188521 L5.7890908,48.3188521 L5.7890908,51.7196066 L3.41143842,51.7196066 L3.41143842,48.3188521 L2.45655794,48.3188521 C2.11314148,48.3150017 1.77134895,48.3658991 1.44438464,48.4695781 C1.16239656,48.5584296 0.899972632,48.6990635 0.670931451,48.8840745 C0.461585554,49.057024 0.29226647,49.2722508 0.174393603,49.5152394 C0.0596776617,49.7636136 0.00103213655,50.0336117 0.00251511735,50.3065507 C-0.0144514563,50.6323954 0.0546452951,50.9570021 0.203040017,51.248588 C0.331630294,51.4902483 0.514537405,51.6996957 0.737773084,51.8609122 C0.973556632,52.0278817 1.23922787,52.1493417 1.52077507,52.2188863 C1.83255345,52.2983095 2.15368178,52.3363265 2.47565555,52.3319308 L6.3811167,52.3319308 L6.3811167,48.3188521 L6.3906655,48.3188521 Z M57.8491744,52.3036697 L58.4412003,52.3036697 L58.4412003,47.0376815 L57.8396256,47.0376815 L57.8396256,52.3036697 L57.8491744,52.3036697 Z M64.7911554,47.0376815 L64.1609343,47.0376815 L64.1609343,47.6405853 L64.7816066,47.6405853 L64.7816066,47.0376815 L64.7911554,47.0376815 Z" id="Shape" fill="#A09EA4"></path>
                <polygon id="Shape" fill="#A09EA4" points="1 56 1.78987342 56 1.78987342 58.0134831 3.93670886 56 4.90886076 56 3.03544304 57.7168539 5 60 4.03797468 60 2.48860759 58.2022472 1.78987342 58.8404494 1.78987342 60 1 60"></polygon>
                <rect id="Rectangle-path" fill="#A09EA4" x="5" y="56" width="1" height="4"></rect>
                <polygon id="Shape" fill="#A09EA4" points="7 56 7.75064267 56 10.2082262 58.7595506 10.2082262 56 11 56 11 60 10.3213368 60 7.79177378 57.1505618 7.79177378 60 7 60"></polygon>
                <path d="M12.0001916,58.0089163 C11.9924309,57.4746136 12.2207086,56.9601132 12.6331772,56.5822707 C13.0456458,56.2044282 13.6072958,55.9953141 14.1905629,56.0024232 C14.78706,55.9761777 15.3712359,56.1639445 15.8190563,56.5258562 L15.3428886,57.0405653 C15.0223706,56.7619417 14.5941843,56.6113213 14.1524695,56.6218189 C13.7709769,56.6354287 13.4110506,56.7874475 13.1520215,57.0443688 C12.8929923,57.3012901 12.7561239,57.6420236 12.7715832,57.9914685 C12.7447402,58.3556591 12.8862955,58.7134064 13.1616453,58.977257 C13.436995,59.2411076 13.8207622,59.3867445 14.2191329,59.3785659 C14.5875823,59.3817814 14.9476639,59.2779387 15.2476551,59.0819539 L15.2476551,58.3578716 L14.1715162,58.3578716 L14.1715162,57.7646476 L16,57.7646476 L16,59.3960137 C15.50774,59.7851954 14.8788977,59.9988922 14.2286563,59.9979616 C13.6406752,60.0227337 13.0682366,59.820824 12.6502261,59.4412201 C12.2322156,59.0616162 12.0068333,58.5390084 12.0287617,58.0001924" id="Shape" fill="#A09EA4"></path>
                <path d="M18.6476409,59.3667544 C19.0550095,59.3925141 19.4552821,59.2603211 19.7487307,59.0031113 C20.0421793,58.7459015 20.2011738,58.3878928 20.1861008,58.018283 C20.200907,57.6479619 20.0421878,57.2892277 19.7491287,57.0306467 C19.4560695,56.7720658 19.0559816,56.6377362 18.6476409,56.6608219 L17.7741927,56.6608219 L17.7741927,59.3577646 L18.6476409,59.3577646 L18.6476409,59.3667544 Z M17,56.0045658 L18.6476409,56.0045658 C19.2556554,55.9672702 19.8535734,56.1597066 20.2992714,56.5361335 C20.7449694,56.9125603 20.9986434,57.43936 20.9999957,57.9913136 C21.0012028,58.5455425 20.7490297,59.0754952 20.3033749,59.4552918 C19.8577202,59.8350883 19.2583529,60.0308368 18.6476409,59.996041 L17,59.996041 L17,56.0045658 Z" id="Shape" fill="#A09EA4"></path>
                <path d="M24.1201717,58.5 C24.1346564,58.0572493 23.9695919,57.6274369 23.6624726,57.3081944 C23.3553533,56.988952 22.93225,56.8073795 22.4892704,56.804721 C22.0500488,56.8072827 21.6306888,56.9880627 21.3272675,57.3056436 C21.0238462,57.6232246 20.862368,58.0503885 20.8798283,58.4892704 C20.8653436,58.9320211 21.0304081,59.3618335 21.3375274,59.6810759 C21.6446467,60.0003184 22.06775,60.1818909 22.5107296,60.1845494 C22.9499512,60.1819877 23.3693112,60.0012077 23.6727325,59.6836268 C23.9761538,59.3660458 24.137632,58.9388819 24.1201717,58.5 M20,58.5 C20,57.1192881 21.1192881,56 22.5,56 C23.8807119,56 25,57.1192881 25,58.5 C25,59.8807119 23.8807119,61 22.5,61 C21.1192881,61 20,59.8807119 20,58.5" id="Shape" fill="#A09EA4"></path>
                <polygon id="Shape" fill="#A09EA4" points="25 56 25.7579909 56 27 57.8876404 28.2328767 56 29 56 29 60 28.2785388 60 28.2785388 57.1325843 27 59.011236 26.9726027 59.011236 25.7031963 57.141573 25.7031963 60 25 60"></polygon>
                <path d="M37.1630901,58.5214592 C37.1839756,58.0675634 37.0158023,57.625312 36.6986023,57.2999786 C36.3814023,56.9746453 35.9435495,56.7953314 35.4892704,56.804721 C35.0500488,56.8072827 34.6306888,56.9880627 34.3272675,57.3056436 C34.0238462,57.6232246 33.862368,58.0503885 33.8798283,58.4892704 C33.8653436,58.9320211 34.0304081,59.3618335 34.3375274,59.6810759 C34.6446467,60.0003184 35.06775,60.1818909 35.5107296,60.1845494 C35.9499512,60.1819877 36.3693112,60.0012077 36.6727325,59.6836268 C36.9761538,59.3660458 37.137632,58.9388819 37.1201717,58.5 M33,58.5 C33,57.1192881 34.1192881,56 35.5,56 C36.8807119,56 38,57.1192881 38,58.5 C38,59.8807119 36.8807119,61 35.5,61 C34.1192881,61 33,59.8807119 33,58.5" id="Shape" fill="#A09EA4"></path>
                <polygon id="Shape" fill="#A09EA4" points="38 56 40 56 40 56.6382022 38.4759036 56.6382022 38.4759036 57.7258427 39.8313253 57.7258427 39.8313253 58.3730337 38.4759036 58.3730337 38.4759036 60 38 60"></polygon>
                <path d="M43.0058651,59.3703017 L43.2815249,58.8800264 C43.5035344,59.2009339 43.7994837,59.3826538 44.1085044,59.3878115 C44.2140029,59.4208757 44.3239596,59.386775 44.4119042,59.2937185 C44.4998487,59.2006621 44.5578146,59.0570797 44.5718475,58.8975362 C44.5718475,58.6173789 44.4662757,58.4685453 43.9853372,58.3022019 C43.5043988,58.1358585 43.111437,57.8557012 43.111437,57.1377981 C43.1212897,56.8069438 43.2230118,56.4971636 43.3921694,56.2828677 C43.5613269,56.0685718 43.7826342,55.9691247 44.0029326,56.0084139 C44.3486186,55.9980754 44.685467,56.171889 44.9530792,56.4986892 L44.6774194,56.9802096 C44.4773098,56.7322438 44.2276686,56.590578 43.9677419,56.5774835 C43.8693444,56.549738 43.7676368,56.5837901 43.6866039,56.6716096 C43.6055709,56.7594291 43.5523854,56.8932425 43.5395894,57.041494 C43.5395894,57.3391612 43.6568915,57.4792398 44.1612903,57.6543381 C44.6656891,57.8294365 45,58.1533684 45,58.7924772 C44.9982089,59.1379789 44.898114,59.4660572 44.7246829,59.6948762 C44.5512518,59.9236953 44.3208355,60.0316822 44.0909091,59.9919007 C43.6880261,59.9953554 43.2988642,59.7736112 43,59.3703017" id="Shape" fill="#A09EA4"></path>
                <path d="M51.2980973,58.4285714 L50.4841438,56.8392857 L49.6807611,58.4285714 L51.3086681,58.4285714 L51.2980973,58.4285714 Z M50.1141649,56 L50.8858351,56 L53,60 L52.0803383,60 L51.6046512,59.0446429 L49.3742072,59.0446429 L48.8879493,60 L48,60 L50.1141649,56 Z" id="Shape" fill="#A09EA4"></path>
                <path d="M53,58.2569662 L53,56 L53.8073467,56 L53.8073467,58.2305173 C53.7544279,58.5171945 53.8550143,58.8089916 54.0814896,59.0257949 C54.307965,59.2425981 54.6365257,59.3616205 54.9769643,59.3501841 C55.3127705,59.3672962 55.6395051,59.2534767 55.8649938,59.0408352 C56.0904825,58.8281937 56.1902795,58.539783 56.1362313,58.2569662 L56.1362313,56 L56.9849804,56 L56.9849804,58.2305173 C57.0559929,58.7015355 56.8727769,59.1746091 56.4866683,59.5171857 C56.1005598,59.8597624 55.5530932,60.0349905 54.9976655,59.9937721 C54.4435874,60.0361558 53.8971416,59.8605717 53.5139848,59.5170355 C53.1308279,59.1734992 52.9529617,58.6996692 53.0310518,58.2305173" id="Shape" fill="#A09EA4"></path>
                <path d="M58.6476409,59.3667544 C59.0550095,59.3925141 59.4552821,59.2603211 59.7487307,59.0031113 C60.0421793,58.7459015 60.2011738,58.3878928 60.1861008,58.018283 C60.200907,57.6479619 60.0421878,57.2892277 59.7491287,57.0306467 C59.4560695,56.7720658 59.0559816,56.6377362 58.6476409,56.6608219 L57.7741927,56.6608219 L57.7741927,59.3577646 L58.6476409,59.3577646 L58.6476409,59.3667544 Z M57,56.0045658 L58.6476409,56.0045658 C59.2556554,55.9672702 59.8535734,56.1597066 60.2992714,56.5361335 C60.7449694,56.9125603 60.9986434,57.43936 60.9999957,57.9913136 C61.0012028,58.5455425 60.7490297,59.0754952 60.3033749,59.4552918 C59.8577202,59.8350883 59.2583529,60.0308368 58.6476409,59.996041 L57,59.996041 L57,56.0045658 Z" id="Shape" fill="#A09EA4"></path>
                <rect id="Rectangle-path" fill="#A09EA4" x="61" y="56" width="1" height="4"></rect>
                <path d="M69.287234,58.4285714 L68.5,56.8392857 L67.6489362,58.4285714 L69.287234,58.4285714 Z M68.0957447,56 L68.8723404,56 L71,60 L70.0744681,60 L69.5638298,59.0446429 L67.3404255,59.0446429 L66.8510638,60 L66,60 L68.0957447,56 Z" id="Shape" fill="#A09EA4"></path>
                <path d="M72.1052632,57.9610871 C72.3394444,57.9943855 72.5792845,57.9414129 72.7643221,57.815523 C72.9493597,57.6896332 73.0619406,57.5028372 73.0736842,57.3022244 C73.0720381,57.097811 72.9626346,56.9046821 72.7753162,56.7755184 C72.5879979,56.6463547 72.3423075,56.5946317 72.1052632,56.6344582 L70.8736842,56.6344582 L70.8736842,57.9610871 L72.1052632,57.9610871 Z M70,56.0023061 L72.1052632,56.0023061 C72.6025568,55.979727 73.0903667,56.1236599 73.4631579,56.4029659 C73.7319174,56.6419764 73.8727411,56.9639059 73.8526316,57.2933208 C73.8726919,57.8693258 73.4031493,58.3751385 72.7368421,58.4953001 L74,60 L73.0631579,60 L71.9052632,58.6199498 L70.8526316,58.6199498 L70.8526316,60 L70,60 L70,56.0023061 Z" id="Shape" fill="#A09EA4"></path>
                <path d="M77.2835821,58.4285714 L76.4626866,56.8392857 L75.6950959,58.4285714 L77.336887,58.4285714 L77.2835821,58.4285714 Z M76.0895522,56 L76.8678038,56 L79,60 L78.0724947,60 L77.5927505,59.0446429 L75.3432836,59.0446429 L74.8528785,60 L74,60 L76.0895522,56 Z" id="Shape" fill="#A09EA4"></path>
                <path d="M80.1128932,59.3955924 C80.2186763,59.4414077 80.3311167,59.4066535 80.4202268,59.3005987 C80.5093369,59.1945439 80.566055,59.0279733 80.5752546,58.8453109 C80.5752546,58.5115336 80.4139657,58.3040504 80.0806354,58.3040504 L79.4139748,58.3040504 L79.4139748,59.4046134 L80.1128932,59.4046134 L80.1128932,59.3955924 Z M79.9892384,57.6906218 C80.0928203,57.7334436 80.2023822,57.6982141 80.289191,57.5941725 C80.3759997,57.4901308 80.4313943,57.3276573 80.4408472,57.1493613 C80.4324445,56.9828075 80.381435,56.8305385 80.3010052,56.7319176 C80.2205754,56.6332966 80.1186202,56.5980042 80.0214962,56.6351638 L79.4139748,56.6351638 L79.4139748,57.6906218 L79.9892384,57.6906218 Z M79,56.0036933 L80.0752591,56.0036933 C80.3044536,55.9762265 80.5307518,56.1027968 80.7042857,56.3555126 C80.8109598,56.5307986 80.8693875,56.7726236 80.8655746,57.0230672 C80.8714178,57.4134464 80.7352046,57.7705638 80.5214916,57.9251681 C80.8005831,58.0125626 81.0021958,58.4230724 80.9999819,58.899437 C80.9999819,59.6211176 80.6451464,60 80.1128932,60 L79,60 L79,56.0036933 Z" id="Shape" fill="#A09EA4"></path>
                <rect id="Rectangle-path" fill="#A09EA4" x="84" y="56" width="1" height="4"></rect>
                <path d="M89.2769556,58.4285714 L88.4630021,56.8392857 L87.6596195,58.4285714 L89.2875264,58.4285714 L89.2769556,58.4285714 Z M88.1141649,56 L88.8858351,56 L91,60 L90.1226216,60 L89.6469345,59.0446429 L87.3530655,59.0446429 L86.8668076,60 L86,60 L88.1141649,56 Z" id="Shape" fill="#A09EA4"></path>
            </g>
        </g>
    </g>
</svg>