<?xml version="1.0" encoding="UTF-8"?>
<svg width="52px" height="62px" viewBox="0 0 52 62" version="1.1" xmlns="http://www.w3.org/2000/svg" xmlns:xlink="http://www.w3.org/1999/xlink">
    <!-- Generator: Sketch 51.3 (57544) - http://www.bohemiancoding.com/sketch -->
    <title>layout</title>
    <desc>Created with Sketch.</desc>
    <defs></defs>
    <g id="Page-1" stroke="none" stroke-width="1" fill="none" fill-rule="evenodd">
        <g id="Home" transform="translate(-859.000000, -653.000000)" fill-rule="nonzero">
            <g id="layout" transform="translate(859.000000, 653.000000)">
                <path d="M28,49 C28,50.1044922 27.1044922,51 26,51 C24.8955078,51 24,50.1044922 24,49 C24,47.8955078 24.8955078,47 26,47 C27.1044922,47 28,47.8955078 28,49 Z" id="Shape" fill="#037C5A"></path>
                <path d="M49,12 L41,12 L41,14 L49,14 C49.5522461,14.0004882 49.9995117,14.4477539 50,15 L50,43 L2,43 L2,15 C2.00048825,14.4477539 2.44775387,14.0004882 3,14 L11,14 L11,12 L3,12 C1.34375,12.0019531 0.001953125,13.34375 0,15 L0,52 C0.001953125,53.65625 1.34375,54.9980469 3,55 L21,55 L21,60 L17,60 L17,62 L35,62 L35,60 L31,60 L31,55 L49,55 C50.65625,54.9980469 51.9980469,53.65625 52,52 L52,15 C51.9980469,13.34375 50.65625,12.0019531 49,12 Z M29,60 L23,60 L23,55 L29,55 L29,60 Z M50,52 C49.9995117,52.5522461 49.5522461,52.9995117 49,53 L3,53 C2.44775388,52.9995117 2.00048825,52.5522461 2,52 L2,45 L50,45 L50,52 Z" id="Shape" fill="#037C5A"></path>
                <path d="M16,0 C14.34375,0.001953125 13.0019531,1.34375 13,3 L13,36 C13.0019531,37.65625 14.34375,38.9980469 16,39 L36,39 C37.65625,38.9980469 38.9980469,37.65625 39,36 L39,3 C38.9980469,1.34375 37.65625,0.001953125 36,0 L16,0 Z M37,36 C36.9995118,36.5522461 36.5522461,36.9995118 36,37 L16,37 C15.4477539,36.9995118 15.0004883,36.5522461 15,36 L15,29 L37,29 L37,36 Z M37,3 L37,27 L15,27 L15,3 C15.0004883,2.44775388 15.4477539,2.00048825 16,2 L36,2 C36.5522461,2.00048825 36.9995118,2.44775388 37,3 Z" id="Shape" fill="#CDB760"></path>
                <path d="M28,34 C28,35.1044922 27.1044922,36 26,36 C24.8955078,36 24,35.1044922 24,34 C24,32.8955078 24.8955078,32 26,32 C27.1044922,32 28,32.8955078 28,34 Z" id="Shape" fill="#CDB760"></path>
                <polygon id="Shape" fill="#F1C24F" points="24 5 28 5 28 7 24 7"></polygon>
            </g>
        </g>
    </g>
</svg>