<?xml version="1.0" encoding="UTF-8"?>
<svg width="54px" height="53px" viewBox="0 0 54 53" version="1.1" xmlns="http://www.w3.org/2000/svg" xmlns:xlink="http://www.w3.org/1999/xlink">
    <!-- Generator: Sketch 51.3 (57544) - http://www.bohemiancoding.com/sketch -->
    <title>workflow</title>
    <desc>Created with Sketch.</desc>
    <defs></defs>
    <g id="Page-1" stroke="none" stroke-width="1" fill="none" fill-rule="evenodd">
        <g id="Home" transform="translate(-861.000000, -849.000000)" fill-rule="nonzero">
            <g id="workflow" transform="translate(861.000000, 849.000000)">
                <path d="M44,33 C38.4770951,33 34,37.4770951 34,43 C34,48.5229048 38.4770951,53 44,53 C49.5229048,53 54,48.5229048 54,43 C53.9933416,37.4797584 49.5202415,33.0066583 44,33 Z M44,51.1818182 C39.481179,51.1818182 35.8181818,47.5188209 35.8181818,43 C35.8181818,38.4811789 39.481179,34.8181818 44,34.8181818 C48.518821,34.8181818 52.1818182,38.4811789 52.1818182,43 C52.1769353,47.5166015 48.5166015,51.1769353 44,51.1818182 Z" id="Shape" fill="#CDB760"></path>
                <path d="M19.0909091,33.4442455 L10.9090909,33.4442455 L10.9090909,24.0344276 L13.5910866,26.656416 C13.9475319,26.993659 14.514826,26.9884506 14.8655007,26.6455653 C15.2161753,26.3031138 15.2210582,25.7484207 14.876598,25.3998928 L10.6427557,21.2600938 C10.2876421,20.9133021 9.71235797,20.9133021 9.35724433,21.2600938 L5.12384581,25.3998928 C4.77938559,25.7484207 4.78426843,26.3031138 5.1349432,26.6455653 C5.48561786,26.9884506 6.05246808,26.993659 6.40935717,26.656416 L9.0909091,24.0344276 L9.0909091,33.4442455 L0.909090931,33.4442455 C0.407049,33.4442455 0,33.842253 0,34.3331435 L0,52.1111021 C0,52.6019924 0.407049,53 0.909090931,53 L19.0909091,53 C19.592951,53 20,52.6019924 20,52.1111021 L20,34.3331435 C20,33.842253 19.592951,33.4442455 19.0909091,33.4442455 Z M18.1818182,51.2222041 L1.81818184,51.2222041 L1.81818184,35.2220414 L18.1818182,35.2220414 L18.1818182,51.2222041 Z" id="Shape" fill="#037C5A"></path>
                <path d="M27.6166464,5.12355713 C27.3939546,4.88741407 27.0648896,4.7928681 26.755283,4.8758733 C26.4456766,4.95887839 26.2039587,5.20745003 26.1226653,5.52526662 C26.0418044,5.84308322 26.133908,6.18087429 26.3643832,6.4090276 L28.97658,9.09093807 L20.4425102,9.09093807 C19.9690198,3.76751004 15.5004813,-0.232717806 10.2981407,0.010527296 C5.09580003,0.253772398 1,4.65437819 1,10.0000001 C1,15.3456218 5.09580003,19.7462276 10.2981407,19.9894727 C15.5004813,20.2327178 19.9690198,16.23249 20.4425102,10.909062 L28.97658,10.909062 L26.3643832,13.5909724 C26.133908,13.8191256 26.0418044,14.1569168 26.1226653,14.4747334 C26.2039587,14.79255 26.4456766,15.0406776 26.755283,15.1241268 C27.0648896,15.2071319 27.3939546,15.1125859 27.6166464,14.875999 L31.7405532,10.6427353 C32.0864823,10.287633 32.0864823,9.71236716 31.7405532,9.35726482 L27.6166464,5.12355713 Z M10.7461188,18.1815579 C6.34417154,18.1815579 2.77591332,14.5186772 2.77591332,10.0000001 C2.77591332,5.48132268 6.34417154,1.81844216 10.7461188,1.81844216 C15.148066,1.81844216 18.7163242,5.48132268 18.7163242,10.0000001 C18.7115677,14.5164578 15.1459039,18.1766753 10.7461188,18.1815579 Z" id="Shape" fill="#CDB760"></path>
                <path d="M53.6764392,9.10619596 L44.0583685,1.20070583 C43.7335152,0.933098057 43.2664848,0.933098057 42.9416314,1.20070583 L33.3239916,9.10619596 C33.1189117,9.27491463 33,9.52734214 33,9.79364882 C33,10.0599554 33.1189117,10.3123828 33.3239916,10.4811016 L42.6185015,18.120285 L42.6185015,28.9677261 L40.0157974,26.3471647 C39.6694022,26.0105948 39.1192195,26.0153658 38.778856,26.3580078 C38.4384924,26.7006499 38.4337531,27.2549493 38.7680849,27.6032299 L42.8770055,31.7400909 C43.2216774,32.0866364 43.780046,32.0866364 44.1247179,31.7400909 L48.2340691,27.6032299 C48.5684009,27.2549493 48.5636617,26.7006499 48.2232982,26.3580078 C47.8829347,26.0153658 47.3323212,26.0105948 46.9863567,26.3471647 L44.3832219,28.9677261 L44.3832219,18.120285 L53.6764392,10.4811016 C53.8810882,10.3123828 54,10.0599554 54,9.79364882 C54,9.52734214 53.8810882,9.27491463 53.6764392,9.10619596 Z M43.5008617,16.5515048 L35.2791432,9.79364882 L43.5008617,3.03579274 L51.7225802,9.79364882 L43.5008617,16.5515048 Z" id="Shape" fill="#037C5A"></path>
            </g>
        </g>
    </g>
</svg>