<?xml version="1.0" encoding="UTF-8"?>
<svg width="61px" height="61px" viewBox="0 0 61 61" version="1.1" xmlns="http://www.w3.org/2000/svg" xmlns:xlink="http://www.w3.org/1999/xlink">
    <!-- Generator: Sketch 51.3 (57544) - http://www.bohemiancoding.com/sketch -->
    <title>np_operations_1361408_000000</title>
    <desc>Created with Sketch.</desc>
    <defs></defs>
    <g id="Page-1" stroke="none" stroke-width="1" fill="none" fill-rule="evenodd">
        <g id="Home" transform="translate(-1579.000000, -650.000000)" fill-rule="nonzero">
            <g id="Group-10" transform="translate(975.000000, 620.000000)">
                <g id="Group-9" transform="translate(173.000000, 30.000000)">
                    <g id="np_operations_1361408_000000" transform="translate(431.000000, 0.000000)">
                        <g id="Group-7" transform="translate(12.000000, 12.000000)" fill="#0E8262">
                            <path d="M18.5294118,13 C14.7501771,13 11.6470588,16.1340522 11.6470588,20.0416667 C11.6470588,23.9083836 14.7500244,27.0833333 18.5294118,27.0833333 C22.3087992,27.0833333 25.4117647,23.9492811 25.4117647,20.0416667 C25.4117647,16.1749498 22.3087992,13 18.5294118,13 Z M18.5294118,25.4547265 C15.6253908,25.4547265 13.2383102,23.0125977 13.2383102,20.0411457 C13.2383102,17.0696936 15.6251871,14.6275649 18.5294118,14.6275649 C21.4336364,14.6275649 23.8205134,17.0696936 23.8205134,20.0411457 C23.8205134,23.0125977 21.4336364,25.4547265 18.5294118,25.4547265 Z" id="Shape"></path>
                            <path d="M35.9066419,25.5615326 C35.7080784,24.6842242 35.1918299,23.9664729 34.476967,23.5677335 L32.6898863,22.5309702 C32.848739,21.6137981 32.9281654,20.696626 32.9281654,19.8193686 C32.9281654,18.5034571 32.8090233,17.3470006 32.4913178,16.190595 L34.2783986,15.113917 C35.8669261,14.1967449 36.3831849,12.482094 35.5492206,11.0066254 L34.0798453,8.45452989 C33.4841348,7.45763033 32.3721655,6.77974271 31.2204957,6.77974271 C30.704237,6.77974271 30.1879782,6.89937475 29.7113691,7.17850764 L27.6859838,8.37482795 C26.1371567,7.01905271 24.3500759,6.02210211 22.3642894,5.423993 L22.3642894,3.15104566 C22.3642894,1.31670147 21.1331678,0.000789967316 19.4652393,0.000789967316 L16.5264887,0.000789967316 C14.739408,-0.0390865256 13.2302814,1.43634371 13.2302814,3.15104566 L13.2302814,5.54363524 C11.3240483,6.18165912 9.5369675,7.21842242 7.98839459,8.6540272 L6.08216152,7.5374854 C5.52615146,7.21847346 4.93049175,7.05896749 4.33478121,7.05896749 C3.30226371,7.05896749 2.42854814,7.57734913 1.91228939,8.49452123 L0.44291411,11.0466168 C0.0457822212,11.7643681 -0.113095951,12.6416765 0.0854979518,13.4790701 C0.284061355,14.3563784 0.800309936,15.0741298 1.55487323,15.512784 L3.42140582,16.5495473 C3.18312669,17.6262253 3.06398966,18.7029034 3.06398966,19.8193942 C3.06398966,20.8561575 3.18313177,21.9328355 3.38169517,22.9297861 L1.71376666,23.886822 C0.125239099,24.8039941 -0.391019649,26.518645 0.44294461,27.9941135 L1.91231989,30.546209 C2.50803043,31.5431086 3.61999972,32.2209962 4.77166949,32.2209962 C5.28792824,32.2209962 5.80418699,32.1013642 6.28079609,31.8222313 L7.90902413,30.8651955 C9.53725216,32.3805277 11.522937,33.4970185 13.6277233,34.1350423 L13.6277233,35.8497443 C13.6277233,37.6840885 14.8588449,39 16.5267734,39 L19.465524,39 C21.2526048,39 22.7617314,37.5644463 22.7617314,35.8098806 L22.7220182,33.9755364 C24.8268045,33.257785 26.7727889,32.1013285 28.3614181,30.5461325 L29.9102452,31.4633046 C30.4662552,31.7823165 31.0619149,31.9418225 31.6576255,31.9418225 C32.690143,31.9418225 33.5638585,31.4234408 34.0801173,30.5062687 L35.5494926,27.9541732 C35.9863402,27.2762856 36.1055026,26.3591135 35.9069087,25.5615836 L35.9066419,25.5615326 Z M34.198962,27.196456 L32.7295867,29.7485516 C32.4515919,30.2669332 31.9750234,30.3865755 31.6573179,30.3865755 C31.3396124,30.3865755 31.0219069,30.3068225 30.7042014,30.1074375 L28.0831563,28.5921052 L27.6463087,29.0307492 C26.0180807,30.7454511 23.9529949,32.0214989 21.6892033,32.6595228 L21.0934928,32.8190288 L21.1729191,35.8496422 C21.1729191,36.6870358 20.3786554,37.4048382 19.4652393,37.4048382 L16.5264887,37.4048382 C15.5733722,37.4048382 15.2159662,36.5674446 15.2159662,35.8496422 L15.2159662,32.938671 L14.6202557,32.779165 C12.3566166,32.1810049 10.2517795,30.9847356 8.58385096,29.3098974 L8.14700334,28.8712534 L5.48620698,30.4264494 C5.28764358,30.5460814 5.04935936,30.6258293 4.771395,30.6258293 C4.17568445,30.6258293 3.57997391,30.2669434 3.2622684,29.7485209 L1.79289312,27.1964254 C1.31633485,26.3590318 1.8723195,25.6412294 2.5077051,25.2823537 L5.20820195,23.7271578 L5.04934919,23.1289976 C4.77135433,22.0523195 4.6522173,20.9357777 4.6522173,19.8192359 C4.6522173,18.6628304 4.81107006,17.5064249 5.08906492,16.3499683 L5.24791768,15.7518081 L2.30916712,14.1168847 C1.95175096,13.9175048 1.71345657,13.5585883 1.63405561,13.1199851 C1.5149135,12.6813412 1.59434242,12.202813 1.83261902,11.8439374 L3.3019943,9.29184182 C3.57998916,8.77346017 4.0565576,8.65381793 4.37426311,8.65381793 C4.69196862,8.65381793 5.00967413,8.73357092 5.32737964,8.93295593 L8.2661302,10.6476579 L8.70297782,10.2090139 C10.3709063,8.57409047 12.1977384,7.4974124 14.3027281,6.89925224 L14.8189868,6.73974627 L14.8189868,3.15088744 C14.8189868,2.31349385 15.6132506,1.59569145 16.5266667,1.59569145 L19.4654172,1.59569145 C20.4185338,1.59569145 20.7759398,2.43308504 20.7759398,3.19075117 L20.8156529,6.69988254 L21.4113635,6.85938851 C23.5559011,7.41768493 25.5018346,8.49431196 27.090413,9.96978048 L27.5272607,10.3685454 L30.545463,8.57411599 C30.7440264,8.45448396 30.9823106,8.37473607 31.260275,8.37473607 C31.8559855,8.37473607 32.4516961,8.73362196 32.7694016,9.25204444 L34.2387769,11.80414 C34.7153351,12.6415336 34.1593505,13.359336 33.5239649,13.7182116 L30.6646153,15.3929988 L30.8631787,15.991159 C31.2205948,17.1874793 31.3794374,18.3837485 31.3794374,19.7794386 C31.3794374,20.7763381 31.2602953,21.7732377 31.0617319,22.7302735 L30.9425898,23.2885699 L33.7225385,24.8836296 C34.0799546,25.0830096 34.318249,25.4419261 34.39765,25.8805292 C34.4770763,26.3590471 34.39765,26.7977013 34.1990866,27.1964407 L34.198962,27.196456 Z" id="Shape"></path>
                        </g>
                        <path d="M13.9890576,7.7844595 C14.1827428,7.7844595 14.3764279,7.73293568 14.5701131,7.57836424 C23.3829422,0.880433249 35.5364527,0.210376348 45.0756786,5.72350692 L41.9767162,7.1146664 L52,10 L46.7220953,0.468176783 L46.2863068,4.12638409 C36.0213039,-1.95345898 22.9474016,-1.28359993 13.4081758,5.92973408 C12.9723873,6.23887697 12.8755385,6.90870304 13.1660724,7.37240088 C13.3597576,7.63001666 13.6987097,7.7845914 13.9892188,7.7845914 L13.9890576,7.7844595 Z" id="Shape" fill="#C9B255"></path>
                        <path d="M5.7453932,16.9280174 L7.12943299,20.0286338 L10,10 L0.465780743,15.2807219 L4.10526604,15.7167429 C-1.94346155,25.9872248 -1.27703071,39.0681054 5.89938682,48.6124229 C6.10442732,48.8546555 6.41198807,49 6.71954883,49 C6.92458933,49 7.12962983,48.9515529 7.33467033,48.8062115 C7.79600817,48.5155287 7.89853499,47.8857005 7.59096767,47.4496918 C0.927315428,38.6321588 0.209509643,26.5205309 5.74560317,16.9278437 L5.7453932,16.9280174 Z" id="Shape" fill="#C9B255"></path>
                        <path d="M47.4782307,53.4227209 C38.6654016,60.1236532 26.5118911,60.7940103 16.9243214,55.2784094 L20.0232838,53.8866265 L10,51 L15.2779047,60.5360944 L15.7136932,56.8762478 C20.3621367,59.6598135 25.5919456,61 30.8211346,61 C37.1157469,61 43.3620154,58.9896543 48.5918242,55.0720898 C49.0276127,54.7628084 49.1244615,54.0926822 48.8339276,53.6287765 C48.4949755,53.2164013 47.9139076,53.1133075 47.4781316,53.4225889 L47.4782307,53.4227209 Z" id="Shape" fill="#C9B255"></path>
                        <path d="M55.1042152,13.4086813 C54.7964,12.9723531 54.1294508,12.8753843 53.6677445,13.1662781 C53.2060382,13.4571719 53.1034134,14.0874376 53.4112351,14.5237534 C60.0803993,23.3474978 60.7475784,35.5160614 55.2581261,45.0671023 L53.8729414,41.9643016 L51,52 L60.4908852,46.7155582 L56.8483894,46.2792299 C62.9534064,36.0499168 62.2864243,22.9598215 55.1041364,13.4087806 L55.1042152,13.4086813 Z" id="Shape" fill="#C9B255"></path>
                    </g>
                </g>
            </g>
        </g>
    </g>
</svg>