<?xml version="1.0" encoding="UTF-8"?>
<svg width="62px" height="62px" viewBox="0 0 62 62" version="1.1" xmlns="http://www.w3.org/2000/svg" xmlns:xlink="http://www.w3.org/1999/xlink">
    <!-- Generator: Sketch 51.3 (57544) - http://www.bohemiancoding.com/sketch -->
    <title>skill</title>
    <desc>Created with Sketch.</desc>
    <defs></defs>
    <g id="Page-1" stroke="none" stroke-width="1" fill="none" fill-rule="evenodd">
        <g id="Home" transform="translate(-1581.000000, -843.000000)" fill-rule="nonzero">
            <g id="Group-11" transform="translate(975.000000, 812.000000)">
                <g id="skill" transform="translate(606.000000, 31.000000)">
                    <path d="M46,31.5 C46,22.9396809 39.0608236,16 30.5,16 C21.9396809,16 15,22.9396809 15,31.5 C15,40.0603189 21.9396809,47 30.5,47 C39.0567871,46.9904134 45.9904134,40.0562825 46,31.5 Z M23.2666667,42.8015788 L23.2666667,40.8 C23.260612,38.5622884 24.7051594,36.5783691 26.8369141,35.8977214 L29.5504231,42.2405111 C29.7133951,42.6204427 30.0867675,42.8666667 30.5,42.8666667 C30.9132323,42.8666667 31.2871094,42.6204427 31.4500813,42.2405111 L34.1625813,35.8977214 C36.2948405,36.5778646 37.7403971,38.5617839 37.7333333,40.8 L37.7333333,42.8015788 C33.3300618,45.6442545 27.6704427,45.6442545 23.2666667,42.8015788 Z M28.9716959,35.6333333 L32.028304,35.6333333 L30.5,39.205599 L28.9716959,35.6333333 Z M39.8,41.1708496 L39.8,40.8 C39.7888997,36.8099609 36.5572103,33.5782715 32.5666667,33.5666667 L28.4333333,33.5666667 C24.4432943,33.5782715 21.2116048,36.8099609 21.2,40.8 L21.2,41.1708496 C17.2427571,37.3745604 15.9909505,31.553483 18.0369302,26.4655273 C20.0829101,21.3775715 25.0164714,18.0439615 30.5,18.0439615 C35.9840332,18.0439615 40.9175944,21.3775715 42.9635742,26.4655273 C45.009554,31.553483 43.7572427,37.3745604 39.8,41.1708496 Z" id="Shape" fill="#037C5A"></path>
                    <path d="M35,28 L35,27 C35.5527344,27 36,26.552246 36,26 L36,25 C35.9970702,22.2402344 33.7602539,20.003418 31,20 L29,20 C26.2402344,20.003418 24.003418,22.2402344 24,25 L24,26 C24,26.552246 24.4477539,27 25,27 L25,28 C25,30.7617188 27.2387695,33 30,33 C32.7617187,33 35,30.7617188 35,28 Z M29,22 L31,22 C32.6572265,22 34,23.3432618 34,25 L30.2363281,25 L28.4472656,24.1049805 C28.0620117,23.9130859 27.597168,23.9887695 27.293457,24.2929688 L26.5864257,25 L26,25 C26,23.3432618 27.3432617,22 29,22 Z M30,31 C28.3432617,31 27,29.6567383 27,28 L27,27 C27.265625,27 27.5195312,26.8945313 27.7070312,26.7070313 L28.1972656,26.2172851 L29.5532226,26.8950195 C29.6918945,26.9643555 29.8452147,27 30,27 L33,27 L33,28 C33,29.6567383 31.6572265,31 30,31 Z" id="Shape" fill="#037C5A"></path>
                    <path d="M62,30.9997477 C61.995459,28.9996664 60.5594772,27.2897078 58.590174,26.9400467 C57.9271804,22.3813345 56.1344738,18.0607753 53.3750274,14.3724314 C54.5360233,12.7341206 54.3442898,10.4963908 52.9214268,9.07958238 C51.4814085,7.71020268 49.2840436,7.5230105 47.6336234,8.63001814 C43.9437658,5.86804912 39.6211884,4.07332413 35.0599533,3.40982599 C34.7143287,1.43799992 33.0018474,0 30.9997477,0 C28.9981526,0 27.2856713,1.43799992 26.9400467,3.40982599 C22.3778026,4.0728196 18.054216,5.86754446 14.3633493,8.63001814 C12.712929,7.5230105 10.5155641,7.71020268 9.07554589,9.07958238 C7.65217822,10.4968953 7.46044476,12.7346251 8.62194516,14.3734406 C5.86350797,18.0617843 4.07181054,22.3818391 3.40982599,26.9400467 C1.43799992,27.2856713 0,28.9981526 0,30.9997477 C0,33.0013428 1.43799992,34.7138242 3.40982599,35.0599533 C4.0728196,39.6181609 5.86603074,43.9382156 8.62598165,47.6265594 C7.46649963,49.2658794 7.65671924,51.5020955 9.07655495,52.9224359 C10.4963908,54.3422717 12.7326069,54.5329958 14.3724314,53.3735138 C18.0612798,56.1334646 22.3813345,57.9266759 26.9400467,58.590174 C27.2856713,60.5614954 28.9981526,62 30.9997477,62 C33.0018474,62 34.7143287,60.5614954 35.0599533,58.590174 C39.6186655,57.9271804 43.9387202,56.1339691 47.6275685,53.3750274 C49.2668886,54.5365278 51.5046184,54.3468127 52.9254633,52.9264724 C54.3458035,51.5056275 54.5355186,49.2678976 53.3740183,47.6285777 C56.1339691,43.9397293 57.9271804,39.6186655 58.590174,35.0599533 C60.5594772,34.7097877 61.995459,32.9998291 62,30.9997477 Z M59.9333165,30.9997477 C59.9333165,32.1410656 59.0084555,33.0664312 57.866633,33.0664312 C56.7253151,33.0664312 55.7999495,32.1410656 55.7999495,30.9997477 C55.7999495,29.8584298 56.7253151,28.9330643 57.866633,28.9330643 C59.0084555,28.9330643 59.9333165,29.8584298 59.9333165,30.9997477 Z M49.997998,9.93531851 C50.8340562,9.93481385 51.587871,10.4383662 51.9077629,11.2103451 C52.2276549,11.9828286 52.0510583,12.8718658 51.460217,13.4632118 C50.6428274,14.2437683 49.3551867,14.2437683 48.5377974,13.4632118 C47.946956,12.8718658 47.7703594,11.9833333 48.0902514,11.2108497 C48.4096387,10.4388707 49.1634535,9.93531851 49.9990072,9.93531851 L49.997998,9.93531851 Z M30.9997477,2.06617896 C32.1415702,2.06617896 33.0664312,2.99154449 33.0664312,4.13286244 C33.0664312,5.27418026 32.1415702,6.19954592 30.9997477,6.19954592 C29.8584298,6.19954592 28.9330643,5.27418026 28.9330643,4.13286244 C28.9330643,2.99154449 29.8584298,2.06617896 30.9997477,2.06617896 Z M10.539783,10.539783 C11.0584721,10.0024251 11.8269192,9.7869774 12.5494511,9.97618795 C13.2724875,10.1653985 13.8365872,10.7294981 14.0257978,11.45203 C14.2150082,12.1745619 13.9995605,12.943009 13.4622026,13.4622026 C12.6448132,14.2427591 11.3571725,14.2427591 10.539783,13.4622026 C9.73298929,12.6549044 9.73298929,11.3465767 10.539783,10.539783 Z M2.06617896,30.9997477 C2.06617896,29.8584298 2.99154449,28.9330643 4.13286244,28.9330643 C5.27468491,28.9330643 6.19954592,29.8584298 6.19954592,30.9997477 C6.19954592,32.1410656 5.27468491,33.0664312 4.13286244,33.0664312 C2.99154449,33.0664312 2.06617896,32.1410656 2.06617896,30.9997477 Z M10.539783,51.460217 C9.73248476,50.6529188 9.73248476,49.3440864 10.5392785,48.5372927 C11.3465767,47.7299945 12.6554089,47.7299945 13.4622026,48.5372927 C14.2695009,49.3440864 14.2695009,50.6529188 13.4622026,51.460217 C12.6448132,52.2412779 11.3571725,52.2412779 10.539783,51.460217 Z M30.9997477,59.9333165 C29.8584298,59.9333165 28.9330643,59.0079508 28.9330643,57.866633 C28.9330643,56.7253151 29.8584298,55.7999495 30.9997477,55.7999495 C32.1415702,55.7999495 33.0664312,56.7253151 33.0664312,57.866633 C33.0664312,59.0079508 32.1415702,59.9333165 30.9997477,59.9333165 Z M30.9997477,53.7332661 C29.2408466,53.7388161 27.67822,54.8589426 27.1085702,56.5234905 C22.9782306,55.9018709 19.0638433,54.2771832 15.7064917,51.7927229 C16.4910847,50.2159685 16.1747247,48.313772 14.9224034,47.0755784 C13.6604952,45.876236 11.7936182,45.5709764 10.2153501,46.3056178 C7.72584412,42.9457434 6.09863364,39.0263104 5.47650947,34.8914298 C7.14559845,34.3278347 8.26976137,32.7616761 8.26976137,30.9997477 C8.26976137,29.2378193 7.14559845,27.6721653 5.47650947,27.1080657 C6.09762446,22.9782306 7.72231216,19.0633388 10.2072771,15.7064917 C11.7850405,16.486039 13.6842096,16.1732111 14.9289626,14.9289626 C16.1737156,13.6842096 16.4865437,11.7850405 15.7064917,10.2067725 C19.0638433,7.72231216 22.9782306,6.09812912 27.1085702,5.47650947 C27.6721653,7.14559845 29.2378193,8.26925671 30.9997477,8.26925671 C32.7621807,8.26925671 34.3278347,7.14559845 34.8914298,5.47650947 C39.0217693,6.09762446 42.9366612,7.72180763 46.2935083,10.2067725 C45.5164836,11.7850405 45.8303209,13.6821914 47.0740647,14.9259353 C48.3178085,16.1691746 50.2149593,16.4830117 51.7927229,15.7064917 C54.2776878,19.0633388 55.9023754,22.9782306 56.5234905,27.1080657 C54.8544014,27.6721653 53.7302386,29.2378193 53.7302386,30.9997477 C53.7302386,32.7616761 54.8544014,34.3278347 56.5234905,34.8914298 C55.8998526,39.0273195 54.2701194,42.9467524 51.7785951,46.3056178 C50.2003271,45.5714809 48.3339545,45.8767405 47.0725511,47.0755784 C45.8207342,48.3142767 45.5043741,50.215464 46.2874534,51.7927229 C42.9321202,54.2766787 39.0197512,55.9008618 34.8914298,56.5234905 C34.3222845,54.8584379 32.7596579,53.7383116 30.9997477,53.7332661 Z M51.460217,51.460217 C50.6428274,52.2412779 49.3551867,52.2412779 48.5377974,51.460217 C47.7304991,50.6529188 47.7304991,49.3440864 48.5377974,48.5372927 C49.344591,47.7299945 50.6534233,47.7299945 51.460217,48.5372927 C52.2675152,49.3440864 52.2675152,50.6529188 51.460217,51.460217 Z" id="Shape" fill="#CDB760"></path>
                </g>
            </g>
        </g>
    </g>
</svg>